<svg xmlns="http://www.w3.org/2000/svg" version="1.1" xmlns:xlink="http://www.w3.org/1999/xlink" xmlns:svgjs="http://svgjs.com/svgjs" width="1440" height="559" preserveAspectRatio="none" viewBox="0 0 1440 559"><g mask="url(&quot;#SvgjsMask1018&quot;)" fill="none"><path d="M-95.11 521.99L-95.11 521.99" stroke="#132e65" stroke-width="1.5"></path><path d="M-95.11 521.99L-42.13 691.41" stroke="#132e65" stroke-width="1.5"></path><path d="M-95.11 521.99L95.95 537.21" stroke="#132e65" stroke-width="1.5"></path><path d="M-95.11 521.99L88.97 400.44" stroke="#132e65" stroke-width="1.5"></path><path d="M-95.11 521.99L101.99 658.81" stroke="#132e65" stroke-width="1.5"></path><path d="M-95.11 521.99L222.07 500.15" stroke="#132e65" stroke-width="1.5"></path><path d="M-95.11 521.99L199.82 367.12" stroke="#132e65" stroke-width="1.5"></path><path d="M-42.13 691.41L-42.13 691.41" stroke="#132e65" stroke-width="1.5"></path><path d="M-42.13 691.41L101.99 658.81" stroke="#132e65" stroke-width="1.5"></path><path d="M-42.13 691.41L95.95 537.21" stroke="#132e65" stroke-width="1.5"></path><path d="M88.97 400.44L88.97 400.44" stroke="#132e65" stroke-width="1.5"></path><path d="M88.97 400.44L199.82 367.12" stroke="#132e65" stroke-width="1.5"></path><path d="M88.97 400.44L95.95 537.21" stroke="#132e65" stroke-width="1.5"></path><path d="M88.97 400.44L222.07 500.15" stroke="#132e65" stroke-width="1.5"></path><path d="M95.95 537.21L95.95 537.21" stroke="#132e65" stroke-width="1.5"></path><path d="M95.95 537.21L101.99 658.81" stroke="#132e65" stroke-width="1.5"></path><path d="M101.99 658.81L101.99 658.81" stroke="#132e65" stroke-width="1.5"></path><path d="M101.99 658.81L211.09 665.26" stroke="#132e65" stroke-width="1.5"></path><path d="M101.99 658.81L222.07 500.15" stroke="#132e65" stroke-width="1.5"></path><path d="M101.99 658.81L88.97 400.44" stroke="#132e65" stroke-width="1.5"></path><path d="M199.82 367.12L199.82 367.12" stroke="#132e65" stroke-width="1.5"></path><path d="M199.82 367.12L222.07 500.15" stroke="#132e65" stroke-width="1.5"></path><path d="M199.82 367.12L356.9 401.63" stroke="#132e65" stroke-width="1.5"></path><path d="M199.82 367.12L95.95 537.21" stroke="#132e65" stroke-width="1.5"></path><path d="M222.07 500.15L222.07 500.15" stroke="#132e65" stroke-width="1.5"></path><path d="M222.07 500.15L95.95 537.21" stroke="#132e65" stroke-width="1.5"></path><path d="M222.07 500.15L362.59 529.05" stroke="#132e65" stroke-width="1.5"></path><path d="M211.09 665.26L211.09 665.26" stroke="#132e65" stroke-width="1.5"></path><path d="M211.09 665.26L222.07 500.15" stroke="#132e65" stroke-width="1.5"></path><path d="M356.9 401.63L356.9 401.63" stroke="#132e65" stroke-width="1.5"></path><path d="M356.9 401.63L362.59 529.05" stroke="#132e65" stroke-width="1.5"></path><path d="M356.9 401.63L517.46 399.19" stroke="#132e65" stroke-width="1.5"></path><path d="M356.9 401.63L222.07 500.15" stroke="#132e65" stroke-width="1.5"></path><path d="M356.9 401.63L545.98 517.04" stroke="#132e65" stroke-width="1.5"></path><path d="M356.9 401.63L380.15 651.54" stroke="#132e65" stroke-width="1.5"></path><path d="M362.59 529.05L362.59 529.05" stroke="#132e65" stroke-width="1.5"></path><path d="M362.59 529.05L380.15 651.54" stroke="#132e65" stroke-width="1.5"></path><path d="M362.59 529.05L545.98 517.04" stroke="#132e65" stroke-width="1.5"></path><path d="M362.59 529.05L517.46 399.19" stroke="#132e65" stroke-width="1.5"></path><path d="M380.15 651.54L380.15 651.54" stroke="#132e65" stroke-width="1.5"></path><path d="M380.15 651.54L536.77 692.26" stroke="#132e65" stroke-width="1.5"></path><path d="M517.46 399.19L517.46 399.19" stroke="#132e65" stroke-width="1.5"></path><path d="M517.46 399.19L545.98 517.04" stroke="#132e65" stroke-width="1.5"></path><path d="M517.46 399.19L679.26 357.54" stroke="#132e65" stroke-width="1.5"></path><path d="M517.46 399.19L654.82 503.54" stroke="#132e65" stroke-width="1.5"></path><path d="M545.98 517.04L545.98 517.04" stroke="#132e65" stroke-width="1.5"></path><path d="M545.98 517.04L654.82 503.54" stroke="#132e65" stroke-width="1.5"></path><path d="M545.98 517.04L536.77 692.26" stroke="#132e65" stroke-width="1.5"></path><path d="M536.77 692.26L536.77 692.26" stroke="#132e65" stroke-width="1.5"></path><path d="M536.77 692.26L676.8 664.97" stroke="#132e65" stroke-width="1.5"></path><path d="M536.77 692.26L654.82 503.54" stroke="#132e65" stroke-width="1.5"></path><path d="M536.77 692.26L362.59 529.05" stroke="#132e65" stroke-width="1.5"></path><path d="M679.26 357.54L679.26 357.54" stroke="#132e65" stroke-width="1.5"></path><path d="M679.26 357.54L654.82 503.54" stroke="#132e65" stroke-width="1.5"></path><path d="M679.26 357.54L843.43 338.96" stroke="#132e65" stroke-width="1.5"></path><path d="M654.82 503.54L654.82 503.54" stroke="#132e65" stroke-width="1.5"></path><path d="M654.82 503.54L676.8 664.97" stroke="#132e65" stroke-width="1.5"></path><path d="M676.8 664.97L676.8 664.97" stroke="#132e65" stroke-width="1.5"></path><path d="M851.47 225.76L851.47 225.76" stroke="#132e65" stroke-width="1.5"></path><path d="M851.47 225.76L843.43 338.96" stroke="#132e65" stroke-width="1.5"></path><path d="M851.47 225.76L1005.47 194.61" stroke="#132e65" stroke-width="1.5"></path><path d="M851.47 225.76L948.21 388.67" stroke="#132e65" stroke-width="1.5"></path><path d="M843.43 338.96L843.43 338.96" stroke="#132e65" stroke-width="1.5"></path><path d="M843.43 338.96L948.21 388.67" stroke="#132e65" stroke-width="1.5"></path><path d="M843.43 338.96L827.51 535.45" stroke="#132e65" stroke-width="1.5"></path><path d="M843.43 338.96L1005.47 194.61" stroke="#132e65" stroke-width="1.5"></path><path d="M827.51 535.45L827.51 535.45" stroke="#132e65" stroke-width="1.5"></path><path d="M827.51 535.45L861.27 690.31" stroke="#132e65" stroke-width="1.5"></path><path d="M827.51 535.45L996.33 539.92" stroke="#132e65" stroke-width="1.5"></path><path d="M827.51 535.45L654.82 503.54" stroke="#132e65" stroke-width="1.5"></path><path d="M827.51 535.45L948.21 388.67" stroke="#132e65" stroke-width="1.5"></path><path d="M827.51 535.45L676.8 664.97" stroke="#132e65" stroke-width="1.5"></path><path d="M861.27 690.31L861.27 690.31" stroke="#132e65" stroke-width="1.5"></path><path d="M861.27 690.31L996.92 641.24" stroke="#132e65" stroke-width="1.5"></path><path d="M996.14 -93.93L996.14 -93.93" stroke="#132e65" stroke-width="1.5"></path><path d="M996.14 -93.93L1088.61 -58.08" stroke="#132e65" stroke-width="1.5"></path><path d="M996.14 -93.93L986.73 78" stroke="#132e65" stroke-width="1.5"></path><path d="M996.14 -93.93L1134.39 107.28" stroke="#132e65" stroke-width="1.5"></path><path d="M996.14 -93.93L1254.97 -81.95" stroke="#132e65" stroke-width="1.5"></path><path d="M996.14 -93.93L1005.47 194.61" stroke="#132e65" stroke-width="1.5"></path><path d="M986.73 78L986.73 78" stroke="#132e65" stroke-width="1.5"></path><path d="M986.73 78L1005.47 194.61" stroke="#132e65" stroke-width="1.5"></path><path d="M986.73 78L1134.39 107.28" stroke="#132e65" stroke-width="1.5"></path><path d="M986.73 78L1088.61 -58.08" stroke="#132e65" stroke-width="1.5"></path><path d="M1005.47 194.61L1005.47 194.61" stroke="#132e65" stroke-width="1.5"></path><path d="M1005.47 194.61L1119.42 242.75" stroke="#132e65" stroke-width="1.5"></path><path d="M1005.47 194.61L1134.39 107.28" stroke="#132e65" stroke-width="1.5"></path><path d="M948.21 388.67L948.21 388.67" stroke="#132e65" stroke-width="1.5"></path><path d="M948.21 388.67L1099.7 399.7" stroke="#132e65" stroke-width="1.5"></path><path d="M948.21 388.67L996.33 539.92" stroke="#132e65" stroke-width="1.5"></path><path d="M996.33 539.92L996.33 539.92" stroke="#132e65" stroke-width="1.5"></path><path d="M996.33 539.92L996.92 641.24" stroke="#132e65" stroke-width="1.5"></path><path d="M996.33 539.92L1098.1 518.05" stroke="#132e65" stroke-width="1.5"></path><path d="M996.33 539.92L1124.16 656.92" stroke="#132e65" stroke-width="1.5"></path><path d="M996.92 641.24L996.92 641.24" stroke="#132e65" stroke-width="1.5"></path><path d="M996.92 641.24L1124.16 656.92" stroke="#132e65" stroke-width="1.5"></path><path d="M996.92 641.24L1098.1 518.05" stroke="#132e65" stroke-width="1.5"></path><path d="M1088.61 -58.08L1088.61 -58.08" stroke="#132e65" stroke-width="1.5"></path><path d="M1088.61 -58.08L1254.97 -81.95" stroke="#132e65" stroke-width="1.5"></path><path d="M1134.39 107.28L1134.39 107.28" stroke="#132e65" stroke-width="1.5"></path><path d="M1134.39 107.28L1261.01 85.1" stroke="#132e65" stroke-width="1.5"></path><path d="M1134.39 107.28L1119.42 242.75" stroke="#132e65" stroke-width="1.5"></path><path d="M1134.39 107.28L1088.61 -58.08" stroke="#132e65" stroke-width="1.5"></path><path d="M1134.39 107.28L1303.79 244.58" stroke="#132e65" stroke-width="1.5"></path><path d="M1119.42 242.75L1119.42 242.75" stroke="#132e65" stroke-width="1.5"></path><path d="M1119.42 242.75L1099.7 399.7" stroke="#132e65" stroke-width="1.5"></path><path d="M1119.42 242.75L1303.79 244.58" stroke="#132e65" stroke-width="1.5"></path><path d="M1119.42 242.75L986.73 78" stroke="#132e65" stroke-width="1.5"></path><path d="M1119.42 242.75L1261.01 85.1" stroke="#132e65" stroke-width="1.5"></path><path d="M1099.7 399.7L1099.7 399.7" stroke="#132e65" stroke-width="1.5"></path><path d="M1099.7 399.7L1098.1 518.05" stroke="#132e65" stroke-width="1.5"></path><path d="M1099.7 399.7L996.33 539.92" stroke="#132e65" stroke-width="1.5"></path><path d="M1098.1 518.05L1098.1 518.05" stroke="#132e65" stroke-width="1.5"></path><path d="M1098.1 518.05L1124.16 656.92" stroke="#132e65" stroke-width="1.5"></path><path d="M1098.1 518.05L1255.1 489.94" stroke="#132e65" stroke-width="1.5"></path><path d="M1098.1 518.05L948.21 388.67" stroke="#132e65" stroke-width="1.5"></path><path d="M1124.16 656.92L1124.16 656.92" stroke="#132e65" stroke-width="1.5"></path><path d="M1124.16 656.92L1269.32 675.93" stroke="#132e65" stroke-width="1.5"></path><path d="M1254.97 -81.95L1254.97 -81.95" stroke="#132e65" stroke-width="1.5"></path><path d="M1254.97 -81.95L1392.14 -79.83" stroke="#132e65" stroke-width="1.5"></path><path d="M1254.97 -81.95L1261.01 85.1" stroke="#132e65" stroke-width="1.5"></path><path d="M1254.97 -81.95L1134.39 107.28" stroke="#132e65" stroke-width="1.5"></path><path d="M1261.01 85.1L1261.01 85.1" stroke="#132e65" stroke-width="1.5"></path><path d="M1261.01 85.1L1303.79 244.58" stroke="#132e65" stroke-width="1.5"></path><path d="M1261.01 85.1L1448.5 68.86" stroke="#132e65" stroke-width="1.5"></path><path d="M1261.01 85.1L1397.32 215.91" stroke="#132e65" stroke-width="1.5"></path><path d="M1261.01 85.1L1392.14 -79.83" stroke="#132e65" stroke-width="1.5"></path><path d="M1303.79 244.58L1303.79 244.58" stroke="#132e65" stroke-width="1.5"></path><path d="M1303.79 244.58L1397.32 215.91" stroke="#132e65" stroke-width="1.5"></path><path d="M1303.79 244.58L1282.4 389.33" stroke="#132e65" stroke-width="1.5"></path><path d="M1303.79 244.58L1436.04 349.51" stroke="#132e65" stroke-width="1.5"></path><path d="M1282.4 389.33L1282.4 389.33" stroke="#132e65" stroke-width="1.5"></path><path d="M1282.4 389.33L1255.1 489.94" stroke="#132e65" stroke-width="1.5"></path><path d="M1282.4 389.33L1436.04 349.51" stroke="#132e65" stroke-width="1.5"></path><path d="M1282.4 389.33L1099.7 399.7" stroke="#132e65" stroke-width="1.5"></path><path d="M1282.4 389.33L1397.32 215.91" stroke="#132e65" stroke-width="1.5"></path><path d="M1255.1 489.94L1255.1 489.94" stroke="#132e65" stroke-width="1.5"></path><path d="M1269.32 675.93L1269.32 675.93" stroke="#132e65" stroke-width="1.5"></path><path d="M1269.32 675.93L1422.61 642.66" stroke="#132e65" stroke-width="1.5"></path><path d="M1269.32 675.93L1255.1 489.94" stroke="#132e65" stroke-width="1.5"></path><path d="M1269.32 675.93L1444.62 558.07" stroke="#132e65" stroke-width="1.5"></path><path d="M1392.14 -79.83L1392.14 -79.83" stroke="#132e65" stroke-width="1.5"></path><path d="M1392.14 -79.83L1543.31 -67.86" stroke="#132e65" stroke-width="1.5"></path><path d="M1392.14 -79.83L1448.5 68.86" stroke="#132e65" stroke-width="1.5"></path><path d="M1448.5 68.86L1448.5 68.86" stroke="#132e65" stroke-width="1.5"></path><path d="M1448.5 68.86L1568.06 70.88" stroke="#132e65" stroke-width="1.5"></path><path d="M1397.32 215.91L1397.32 215.91" stroke="#132e65" stroke-width="1.5"></path><path d="M1397.32 215.91L1436.04 349.51" stroke="#132e65" stroke-width="1.5"></path><path d="M1397.32 215.91L1448.5 68.86" stroke="#132e65" stroke-width="1.5"></path><path d="M1397.32 215.91L1570.04 203.85" stroke="#132e65" stroke-width="1.5"></path><path d="M1436.04 349.51L1436.04 349.51" stroke="#132e65" stroke-width="1.5"></path><path d="M1436.04 349.51L1605.99 394.66" stroke="#132e65" stroke-width="1.5"></path><path d="M1444.62 558.07L1444.62 558.07" stroke="#132e65" stroke-width="1.5"></path><path d="M1444.62 558.07L1422.61 642.66" stroke="#132e65" stroke-width="1.5"></path><path d="M1444.62 558.07L1585.23 548.67" stroke="#132e65" stroke-width="1.5"></path><path d="M1444.62 558.07L1594.91 681.13" stroke="#132e65" stroke-width="1.5"></path><path d="M1444.62 558.07L1255.1 489.94" stroke="#132e65" stroke-width="1.5"></path><path d="M1444.62 558.07L1436.04 349.51" stroke="#132e65" stroke-width="1.5"></path><path d="M1422.61 642.66L1422.61 642.66" stroke="#132e65" stroke-width="1.5"></path><path d="M1422.61 642.66L1594.91 681.13" stroke="#132e65" stroke-width="1.5"></path><path d="M1422.61 642.66L1585.23 548.67" stroke="#132e65" stroke-width="1.5"></path><path d="M1543.31 -67.86L1543.31 -67.86" stroke="#132e65" stroke-width="1.5"></path><path d="M1543.31 -67.86L1568.06 70.88" stroke="#132e65" stroke-width="1.5"></path><path d="M1543.31 -67.86L1448.5 68.86" stroke="#132e65" stroke-width="1.5"></path><path d="M1568.06 70.88L1568.06 70.88" stroke="#132e65" stroke-width="1.5"></path><path d="M1568.06 70.88L1570.04 203.85" stroke="#132e65" stroke-width="1.5"></path><path d="M1570.04 203.85L1570.04 203.85" stroke="#132e65" stroke-width="1.5"></path><path d="M1605.99 394.66L1605.99 394.66" stroke="#132e65" stroke-width="1.5"></path><path d="M1605.99 394.66L1585.23 548.67" stroke="#132e65" stroke-width="1.5"></path><path d="M1605.99 394.66L1570.04 203.85" stroke="#132e65" stroke-width="1.5"></path><path d="M1605.99 394.66L1444.62 558.07" stroke="#132e65" stroke-width="1.5"></path><path d="M1605.99 394.66L1397.32 215.91" stroke="#132e65" stroke-width="1.5"></path><path d="M1605.99 394.66L1594.91 681.13" stroke="#132e65" stroke-width="1.5"></path><path d="M1585.23 548.67L1585.23 548.67" stroke="#132e65" stroke-width="1.5"></path><path d="M1585.23 548.67L1594.91 681.13" stroke="#132e65" stroke-width="1.5"></path><path d="M1594.91 681.13L1594.91 681.13" stroke="#132e65" stroke-width="1.5"></path><circle r="5" cx="-95.11" cy="521.99" fill="#132e65"></circle><circle r="5" cx="-42.13" cy="691.41" fill="#132e65"></circle><circle r="5" cx="88.97" cy="400.44" fill="#132e65"></circle><circle r="5" cx="95.95" cy="537.21" fill="#132e65"></circle><circle r="5" cx="101.99" cy="658.81" fill="#132e65"></circle><circle r="5" cx="199.82" cy="367.12" fill="#132e65"></circle><circle r="5" cx="222.07" cy="500.15" fill="#132e65"></circle><circle r="5" cx="211.09" cy="665.26" fill="#132e65"></circle><circle r="5" cx="356.9" cy="401.63" fill="#132e65"></circle><circle r="5" cx="362.59" cy="529.05" fill="#132e65"></circle><circle r="5" cx="380.15" cy="651.54" fill="#132e65"></circle><circle r="5" cx="517.46" cy="399.19" fill="#132e65"></circle><circle r="5" cx="545.98" cy="517.04" fill="#132e65"></circle><circle r="5" cx="536.77" cy="692.26" fill="#132e65"></circle><circle r="5" cx="679.26" cy="357.54" fill="#132e65"></circle><circle r="5" cx="654.82" cy="503.54" fill="#132e65"></circle><circle r="5" cx="676.8" cy="664.97" fill="#132e65"></circle><circle r="5" cx="851.47" cy="225.76" fill="#132e65"></circle><circle r="5" cx="843.43" cy="338.96" fill="#132e65"></circle><circle r="5" cx="827.51" cy="535.45" fill="#132e65"></circle><circle r="5" cx="861.27" cy="690.31" fill="#132e65"></circle><circle r="5" cx="996.14" cy="-93.93" fill="#132e65"></circle><circle r="5" cx="986.73" cy="78" fill="#132e65"></circle><circle r="5" cx="1005.47" cy="194.61" fill="#132e65"></circle><circle r="5" cx="948.21" cy="388.67" fill="#132e65"></circle><circle r="5" cx="996.33" cy="539.92" fill="#132e65"></circle><circle r="5" cx="996.92" cy="641.24" fill="#132e65"></circle><circle r="5" cx="1088.61" cy="-58.08" fill="#132e65"></circle><circle r="5" cx="1134.39" cy="107.28" fill="#132e65"></circle><circle r="5" cx="1119.42" cy="242.75" fill="#132e65"></circle><circle r="5" cx="1099.7" cy="399.7" fill="#132e65"></circle><circle r="5" cx="1098.1" cy="518.05" fill="#132e65"></circle><circle r="5" cx="1124.16" cy="656.92" fill="#132e65"></circle><circle r="5" cx="1254.97" cy="-81.95" fill="#132e65"></circle><circle r="5" cx="1261.01" cy="85.1" fill="#132e65"></circle><circle r="5" cx="1303.79" cy="244.58" fill="#132e65"></circle><circle r="5" cx="1282.4" cy="389.33" fill="#132e65"></circle><circle r="5" cx="1255.1" cy="489.94" fill="#132e65"></circle><circle r="5" cx="1269.32" cy="675.93" fill="#132e65"></circle><circle r="5" cx="1392.14" cy="-79.83" fill="#132e65"></circle><circle r="5" cx="1448.5" cy="68.86" fill="#132e65"></circle><circle r="5" cx="1397.32" cy="215.91" fill="#132e65"></circle><circle r="5" cx="1436.04" cy="349.51" fill="#132e65"></circle><circle r="5" cx="1444.62" cy="558.07" fill="#132e65"></circle><circle r="5" cx="1422.61" cy="642.66" fill="#132e65"></circle><circle r="5" cx="1543.31" cy="-67.86" fill="#132e65"></circle><circle r="5" cx="1568.06" cy="70.88" fill="#132e65"></circle><circle r="5" cx="1570.04" cy="203.85" fill="#132e65"></circle><circle r="5" cx="1605.99" cy="394.66" fill="#132e65"></circle><circle r="5" cx="1585.23" cy="548.67" fill="#132e65"></circle><circle r="5" cx="1594.91" cy="681.13" fill="#132e65"></circle><path d="M-111.57 704.94L-111.57 704.94" stroke="hsl(228.5, 77.2%, 51.5%)" stroke-width="1.5"></path><path d="M-111.57 704.94L81.36 491.56" stroke="hsl(228.5, 77.2%, 51.5%)" stroke-width="1.5"></path><path d="M-111.57 704.94L206.24 698.36" stroke="hsl(228.5, 77.2%, 51.5%)" stroke-width="1.5"></path><path d="M-111.57 704.94L200.85 527.91" stroke="hsl(228.5, 77.2%, 51.5%)" stroke-width="1.5"></path><path d="M-111.57 704.94L345.05 644.44" stroke="hsl(228.5, 77.2%, 51.5%)" stroke-width="1.5"></path><path d="M-111.57 704.94L373.91 555.06" stroke="hsl(228.5, 77.2%, 51.5%)" stroke-width="1.5"></path><path d="M81.36 491.56L81.36 491.56" stroke="hsl(228.5, 77.2%, 51.5%)" stroke-width="1.5"></path><path d="M81.36 491.56L200.85 527.91" stroke="hsl(228.5, 77.2%, 51.5%)" stroke-width="1.5"></path><path d="M81.36 491.56L206.24 698.36" stroke="hsl(228.5, 77.2%, 51.5%)" stroke-width="1.5"></path><path d="M81.36 491.56L373.91 555.06" stroke="hsl(228.5, 77.2%, 51.5%)" stroke-width="1.5"></path><path d="M859.3 527.27L859.3 527.27" stroke="hsl(228.5, 77.2%, 51.5%)" stroke-width="1.5"></path><path d="M859.3 527.27L839.36 648.77" stroke="hsl(228.5, 77.2%, 51.5%)" stroke-width="1.5"></path><path d="M859.3 527.27L984.77 523.66" stroke="hsl(228.5, 77.2%, 51.5%)" stroke-width="1.5"></path><path d="M859.3 527.27L693.95 551.86" stroke="hsl(228.5, 77.2%, 51.5%)" stroke-width="1.5"></path><path d="M1003 382.1L1003 382.1" stroke="hsl(228.5, 77.2%, 51.5%)" stroke-width="1.5"></path><path d="M1003 382.1L1131.69 355.61" stroke="hsl(228.5, 77.2%, 51.5%)" stroke-width="1.5"></path><path d="M1003 382.1L984.77 523.66" stroke="hsl(228.5, 77.2%, 51.5%)" stroke-width="1.5"></path><path d="M1003 382.1L1094.75 515.17" stroke="hsl(228.5, 77.2%, 51.5%)" stroke-width="1.5"></path><path d="M1003 382.1L859.3 527.27" stroke="hsl(228.5, 77.2%, 51.5%)" stroke-width="1.5"></path><path d="M1003 382.1L796.62 368.11" stroke="hsl(228.5, 77.2%, 51.5%)" stroke-width="1.5"></path><path d="M1003 382.1L985.52 643.13" stroke="hsl(228.5, 77.2%, 51.5%)" stroke-width="1.5"></path><path d="M1258.79 90.06L1258.79 90.06" stroke="hsl(228.5, 77.2%, 51.5%)" stroke-width="1.5"></path><path d="M1258.79 90.06L1252.48 -48.76" stroke="hsl(228.5, 77.2%, 51.5%)" stroke-width="1.5"></path><path d="M1258.79 90.06L1284.78 230" stroke="hsl(228.5, 77.2%, 51.5%)" stroke-width="1.5"></path><path d="M1258.79 90.06L1423.58 60.92" stroke="hsl(228.5, 77.2%, 51.5%)" stroke-width="1.5"></path><path d="M1258.79 90.06L1424.48 -98.42" stroke="hsl(228.5, 77.2%, 51.5%)" stroke-width="1.5"></path><path d="M1258.79 90.06L1268.66 372.76" stroke="hsl(228.5, 77.2%, 51.5%)" stroke-width="1.5"></path><path d="M1284.78 230L1284.78 230" stroke="hsl(228.5, 77.2%, 51.5%)" stroke-width="1.5"></path><path d="M1284.78 230L1268.66 372.76" stroke="hsl(228.5, 77.2%, 51.5%)" stroke-width="1.5"></path><path d="M1284.78 230L1408.81 350.8" stroke="hsl(228.5, 77.2%, 51.5%)" stroke-width="1.5"></path><path d="M1423.58 60.92L1423.58 60.92" stroke="hsl(228.5, 77.2%, 51.5%)" stroke-width="1.5"></path><path d="M1423.58 60.92L1424.48 -98.42" stroke="hsl(228.5, 77.2%, 51.5%)" stroke-width="1.5"></path><path d="M1423.58 60.92L1596.91 80.1" stroke="hsl(228.5, 77.2%, 51.5%)" stroke-width="1.5"></path><path d="M1423.58 60.92L1252.48 -48.76" stroke="hsl(228.5, 77.2%, 51.5%)" stroke-width="1.5"></path><path d="M1423.58 60.92L1284.78 230" stroke="hsl(228.5, 77.2%, 51.5%)" stroke-width="1.5"></path><path d="M1423.58 60.92L1573.34 -100.7" stroke="hsl(228.5, 77.2%, 51.5%)" stroke-width="1.5"></path><path d="M1573.34 -100.7L1573.34 -100.7" stroke="hsl(228.5, 77.2%, 51.5%)" stroke-width="1.5"></path><path d="M1573.34 -100.7L1424.48 -98.42" stroke="hsl(228.5, 77.2%, 51.5%)" stroke-width="1.5"></path><path d="M1573.34 -100.7L1596.91 80.1" stroke="hsl(228.5, 77.2%, 51.5%)" stroke-width="1.5"></path><path d="M1573.34 -100.7L1608.79 202.53" stroke="hsl(228.5, 77.2%, 51.5%)" stroke-width="1.5"></path><path d="M1573.34 -100.7L1252.48 -48.76" stroke="hsl(228.5, 77.2%, 51.5%)" stroke-width="1.5"></path><path d="M1573.34 -100.7L1258.79 90.06" stroke="hsl(228.5, 77.2%, 51.5%)" stroke-width="1.5"></path><path d="M1596.91 80.1L1596.91 80.1" stroke="hsl(228.5, 77.2%, 51.5%)" stroke-width="1.5"></path><path d="M1596.91 80.1L1608.79 202.53" stroke="hsl(228.5, 77.2%, 51.5%)" stroke-width="1.5"></path><path d="M1598.48 704.25L1598.48 704.25" stroke="hsl(228.5, 77.2%, 51.5%)" stroke-width="1.5"></path><path d="M1598.48 704.25L1570.41 522.77" stroke="hsl(228.5, 77.2%, 51.5%)" stroke-width="1.5"></path><path d="M1598.48 704.25L1393.04 649.56" stroke="hsl(228.5, 77.2%, 51.5%)" stroke-width="1.5"></path><path d="M1598.48 704.25L1391.33 544.01" stroke="hsl(228.5, 77.2%, 51.5%)" stroke-width="1.5"></path><path d="M1598.48 704.25L1284.01 693.24" stroke="hsl(228.5, 77.2%, 51.5%)" stroke-width="1.5"></path><path d="M200.85 527.91L200.85 527.91" stroke="hsl(228.5, 77.2%, 51.5%)" stroke-width="1.5"></path><path d="M200.85 527.91L206.24 698.36" stroke="hsl(228.5, 77.2%, 51.5%)" stroke-width="1.5"></path><path d="M200.85 527.91L373.91 555.06" stroke="hsl(228.5, 77.2%, 51.5%)" stroke-width="1.5"></path><path d="M200.85 527.91L345.05 644.44" stroke="hsl(228.5, 77.2%, 51.5%)" stroke-width="1.5"></path><path d="M200.85 527.91L539.16 551.27" stroke="hsl(228.5, 77.2%, 51.5%)" stroke-width="1.5"></path><path d="M206.24 698.36L206.24 698.36" stroke="hsl(228.5, 77.2%, 51.5%)" stroke-width="1.5"></path><path d="M206.24 698.36L345.05 644.44" stroke="hsl(228.5, 77.2%, 51.5%)" stroke-width="1.5"></path><path d="M206.24 698.36L373.91 555.06" stroke="hsl(228.5, 77.2%, 51.5%)" stroke-width="1.5"></path><path d="M373.91 555.06L373.91 555.06" stroke="hsl(228.5, 77.2%, 51.5%)" stroke-width="1.5"></path><path d="M373.91 555.06L345.05 644.44" stroke="hsl(228.5, 77.2%, 51.5%)" stroke-width="1.5"></path><path d="M373.91 555.06L539.16 551.27" stroke="hsl(228.5, 77.2%, 51.5%)" stroke-width="1.5"></path><path d="M345.05 644.44L345.05 644.44" stroke="hsl(228.5, 77.2%, 51.5%)" stroke-width="1.5"></path><path d="M539.16 551.27L539.16 551.27" stroke="hsl(228.5, 77.2%, 51.5%)" stroke-width="1.5"></path><path d="M539.16 551.27L542.57 640.66" stroke="hsl(228.5, 77.2%, 51.5%)" stroke-width="1.5"></path><path d="M539.16 551.27L693.95 551.86" stroke="hsl(228.5, 77.2%, 51.5%)" stroke-width="1.5"></path><path d="M539.16 551.27L672.49 704.66" stroke="hsl(228.5, 77.2%, 51.5%)" stroke-width="1.5"></path><path d="M539.16 551.27L345.05 644.44" stroke="hsl(228.5, 77.2%, 51.5%)" stroke-width="1.5"></path><path d="M539.16 551.27L705.57 360.85" stroke="hsl(228.5, 77.2%, 51.5%)" stroke-width="1.5"></path><path d="M542.57 640.66L542.57 640.66" stroke="hsl(228.5, 77.2%, 51.5%)" stroke-width="1.5"></path><path d="M542.57 640.66L672.49 704.66" stroke="hsl(228.5, 77.2%, 51.5%)" stroke-width="1.5"></path><path d="M542.57 640.66L693.95 551.86" stroke="hsl(228.5, 77.2%, 51.5%)" stroke-width="1.5"></path><path d="M542.57 640.66L373.91 555.06" stroke="hsl(228.5, 77.2%, 51.5%)" stroke-width="1.5"></path><path d="M542.57 640.66L345.05 644.44" stroke="hsl(228.5, 77.2%, 51.5%)" stroke-width="1.5"></path><path d="M542.57 640.66L839.36 648.77" stroke="hsl(228.5, 77.2%, 51.5%)" stroke-width="1.5"></path><path d="M705.57 360.85L705.57 360.85" stroke="hsl(228.5, 77.2%, 51.5%)" stroke-width="1.5"></path><path d="M705.57 360.85L796.62 368.11" stroke="hsl(228.5, 77.2%, 51.5%)" stroke-width="1.5"></path><path d="M705.57 360.85L693.95 551.86" stroke="hsl(228.5, 77.2%, 51.5%)" stroke-width="1.5"></path><path d="M705.57 360.85L859.3 527.27" stroke="hsl(228.5, 77.2%, 51.5%)" stroke-width="1.5"></path><path d="M693.95 551.86L693.95 551.86" stroke="hsl(228.5, 77.2%, 51.5%)" stroke-width="1.5"></path><path d="M693.95 551.86L672.49 704.66" stroke="hsl(228.5, 77.2%, 51.5%)" stroke-width="1.5"></path><path d="M693.95 551.86L839.36 648.77" stroke="hsl(228.5, 77.2%, 51.5%)" stroke-width="1.5"></path><path d="M672.49 704.66L672.49 704.66" stroke="hsl(228.5, 77.2%, 51.5%)" stroke-width="1.5"></path><path d="M672.49 704.66L839.36 648.77" stroke="hsl(228.5, 77.2%, 51.5%)" stroke-width="1.5"></path><path d="M672.49 704.66L859.3 527.27" stroke="hsl(228.5, 77.2%, 51.5%)" stroke-width="1.5"></path><path d="M672.49 704.66L985.52 643.13" stroke="hsl(228.5, 77.2%, 51.5%)" stroke-width="1.5"></path><path d="M796.62 368.11L796.62 368.11" stroke="hsl(228.5, 77.2%, 51.5%)" stroke-width="1.5"></path><path d="M796.62 368.11L859.3 527.27" stroke="hsl(228.5, 77.2%, 51.5%)" stroke-width="1.5"></path><path d="M796.62 368.11L693.95 551.86" stroke="hsl(228.5, 77.2%, 51.5%)" stroke-width="1.5"></path><path d="M796.62 368.11L984.77 523.66" stroke="hsl(228.5, 77.2%, 51.5%)" stroke-width="1.5"></path><path d="M796.62 368.11L839.36 648.77" stroke="hsl(228.5, 77.2%, 51.5%)" stroke-width="1.5"></path><path d="M839.36 648.77L839.36 648.77" stroke="hsl(228.5, 77.2%, 51.5%)" stroke-width="1.5"></path><path d="M839.36 648.77L985.52 643.13" stroke="hsl(228.5, 77.2%, 51.5%)" stroke-width="1.5"></path><path d="M984.77 523.66L984.77 523.66" stroke="hsl(228.5, 77.2%, 51.5%)" stroke-width="1.5"></path><path d="M984.77 523.66L1094.75 515.17" stroke="hsl(228.5, 77.2%, 51.5%)" stroke-width="1.5"></path><path d="M984.77 523.66L985.52 643.13" stroke="hsl(228.5, 77.2%, 51.5%)" stroke-width="1.5"></path><path d="M985.52 643.13L985.52 643.13" stroke="hsl(228.5, 77.2%, 51.5%)" stroke-width="1.5"></path><path d="M985.52 643.13L1094.75 515.17" stroke="hsl(228.5, 77.2%, 51.5%)" stroke-width="1.5"></path><path d="M1131.69 355.61L1131.69 355.61" stroke="hsl(228.5, 77.2%, 51.5%)" stroke-width="1.5"></path><path d="M1131.69 355.61L1268.66 372.76" stroke="hsl(228.5, 77.2%, 51.5%)" stroke-width="1.5"></path><path d="M1131.69 355.61L1094.75 515.17" stroke="hsl(228.5, 77.2%, 51.5%)" stroke-width="1.5"></path><path d="M1131.69 355.61L1284.78 230" stroke="hsl(228.5, 77.2%, 51.5%)" stroke-width="1.5"></path><path d="M1131.69 355.61L984.77 523.66" stroke="hsl(228.5, 77.2%, 51.5%)" stroke-width="1.5"></path><path d="M1094.75 515.17L1094.75 515.17" stroke="hsl(228.5, 77.2%, 51.5%)" stroke-width="1.5"></path><path d="M1094.75 515.17L1159.56 711.67" stroke="hsl(228.5, 77.2%, 51.5%)" stroke-width="1.5"></path><path d="M1094.75 515.17L1268.66 372.76" stroke="hsl(228.5, 77.2%, 51.5%)" stroke-width="1.5"></path><path d="M1159.56 711.67L1159.56 711.67" stroke="hsl(228.5, 77.2%, 51.5%)" stroke-width="1.5"></path><path d="M1159.56 711.67L1284.01 693.24" stroke="hsl(228.5, 77.2%, 51.5%)" stroke-width="1.5"></path><path d="M1159.56 711.67L985.52 643.13" stroke="hsl(228.5, 77.2%, 51.5%)" stroke-width="1.5"></path><path d="M1159.56 711.67L1393.04 649.56" stroke="hsl(228.5, 77.2%, 51.5%)" stroke-width="1.5"></path><path d="M1252.48 -48.76L1252.48 -48.76" stroke="hsl(228.5, 77.2%, 51.5%)" stroke-width="1.5"></path><path d="M1252.48 -48.76L1424.48 -98.42" stroke="hsl(228.5, 77.2%, 51.5%)" stroke-width="1.5"></path><path d="M1252.48 -48.76L1284.78 230" stroke="hsl(228.5, 77.2%, 51.5%)" stroke-width="1.5"></path><path d="M1252.48 -48.76L1596.91 80.1" stroke="hsl(228.5, 77.2%, 51.5%)" stroke-width="1.5"></path><path d="M1268.66 372.76L1268.66 372.76" stroke="hsl(228.5, 77.2%, 51.5%)" stroke-width="1.5"></path><path d="M1268.66 372.76L1408.81 350.8" stroke="hsl(228.5, 77.2%, 51.5%)" stroke-width="1.5"></path><path d="M1284.01 693.24L1284.01 693.24" stroke="hsl(228.5, 77.2%, 51.5%)" stroke-width="1.5"></path><path d="M1284.01 693.24L1393.04 649.56" stroke="hsl(228.5, 77.2%, 51.5%)" stroke-width="1.5"></path><path d="M1284.01 693.24L1391.33 544.01" stroke="hsl(228.5, 77.2%, 51.5%)" stroke-width="1.5"></path><path d="M1424.48 -98.42L1424.48 -98.42" stroke="hsl(228.5, 77.2%, 51.5%)" stroke-width="1.5"></path><path d="M1408.81 350.8L1408.81 350.8" stroke="hsl(228.5, 77.2%, 51.5%)" stroke-width="1.5"></path><path d="M1408.81 350.8L1594.54 380.3" stroke="hsl(228.5, 77.2%, 51.5%)" stroke-width="1.5"></path><path d="M1408.81 350.8L1391.33 544.01" stroke="hsl(228.5, 77.2%, 51.5%)" stroke-width="1.5"></path><path d="M1391.33 544.01L1391.33 544.01" stroke="hsl(228.5, 77.2%, 51.5%)" stroke-width="1.5"></path><path d="M1391.33 544.01L1393.04 649.56" stroke="hsl(228.5, 77.2%, 51.5%)" stroke-width="1.5"></path><path d="M1393.04 649.56L1393.04 649.56" stroke="hsl(228.5, 77.2%, 51.5%)" stroke-width="1.5"></path><path d="M1608.79 202.53L1608.79 202.53" stroke="hsl(228.5, 77.2%, 51.5%)" stroke-width="1.5"></path><path d="M1608.79 202.53L1594.54 380.3" stroke="hsl(228.5, 77.2%, 51.5%)" stroke-width="1.5"></path><path d="M1608.79 202.53L1423.58 60.92" stroke="hsl(228.5, 77.2%, 51.5%)" stroke-width="1.5"></path><path d="M1608.79 202.53L1408.81 350.8" stroke="hsl(228.5, 77.2%, 51.5%)" stroke-width="1.5"></path><path d="M1608.79 202.53L1570.41 522.77" stroke="hsl(228.5, 77.2%, 51.5%)" stroke-width="1.5"></path><path d="M1594.54 380.3L1594.54 380.3" stroke="hsl(228.5, 77.2%, 51.5%)" stroke-width="1.5"></path><path d="M1594.54 380.3L1570.41 522.77" stroke="hsl(228.5, 77.2%, 51.5%)" stroke-width="1.5"></path><path d="M1570.41 522.77L1570.41 522.77" stroke="hsl(228.5, 77.2%, 51.5%)" stroke-width="1.5"></path><path d="M1570.41 522.77L1391.33 544.01" stroke="hsl(228.5, 77.2%, 51.5%)" stroke-width="1.5"></path><path d="M1570.41 522.77L1393.04 649.56" stroke="hsl(228.5, 77.2%, 51.5%)" stroke-width="1.5"></path><path d="M1570.41 522.77L1408.81 350.8" stroke="hsl(228.5, 77.2%, 51.5%)" stroke-width="1.5"></path><circle r="25" cx="-111.57" cy="704.94" fill="url(#SvgjsRadialGradient1019)"></circle><circle r="25" cx="81.36" cy="491.56" fill="url(#SvgjsRadialGradient1019)"></circle><circle r="25" cx="859.3" cy="527.27" fill="url(#SvgjsRadialGradient1019)"></circle><circle r="25" cx="1003" cy="382.1" fill="url(#SvgjsRadialGradient1019)"></circle><circle r="25" cx="1258.79" cy="90.06" fill="url(#SvgjsRadialGradient1019)"></circle><circle r="25" cx="1284.78" cy="230" fill="url(#SvgjsRadialGradient1019)"></circle><circle r="25" cx="1423.58" cy="60.92" fill="url(#SvgjsRadialGradient1019)"></circle><circle r="25" cx="1573.34" cy="-100.7" fill="url(#SvgjsRadialGradient1019)"></circle><circle r="25" cx="1596.91" cy="80.1" fill="url(#SvgjsRadialGradient1019)"></circle><circle r="25" cx="1598.48" cy="704.25" fill="url(#SvgjsRadialGradient1019)"></circle><circle r="5" cx="200.85" cy="527.91" fill="#8b9ad9"></circle><circle r="5" cx="206.24" cy="698.36" fill="#8b9ad9"></circle><circle r="5" cx="373.91" cy="555.06" fill="#8b9ad9"></circle><circle r="5" cx="345.05" cy="644.44" fill="#8b9ad9"></circle><circle r="5" cx="539.16" cy="551.27" fill="#8b9ad9"></circle><circle r="5" cx="542.57" cy="640.66" fill="#8b9ad9"></circle><circle r="5" cx="705.57" cy="360.85" fill="#8b9ad9"></circle><circle r="5" cx="693.95" cy="551.86" fill="#8b9ad9"></circle><circle r="5" cx="672.49" cy="704.66" fill="#8b9ad9"></circle><circle r="5" cx="796.62" cy="368.11" fill="#8b9ad9"></circle><circle r="5" cx="839.36" cy="648.77" fill="#8b9ad9"></circle><circle r="5" cx="984.77" cy="523.66" fill="#8b9ad9"></circle><circle r="5" cx="985.52" cy="643.13" fill="#8b9ad9"></circle><circle r="5" cx="1131.69" cy="355.61" fill="#8b9ad9"></circle><circle r="5" cx="1094.75" cy="515.17" fill="#8b9ad9"></circle><circle r="5" cx="1159.56" cy="711.67" fill="#8b9ad9"></circle><circle r="5" cx="1252.48" cy="-48.76" fill="#8b9ad9"></circle><circle r="5" cx="1268.66" cy="372.76" fill="#8b9ad9"></circle><circle r="5" cx="1284.01" cy="693.24" fill="#8b9ad9"></circle><circle r="5" cx="1424.48" cy="-98.42" fill="#8b9ad9"></circle><circle r="5" cx="1408.81" cy="350.8" fill="#8b9ad9"></circle><circle r="5" cx="1391.33" cy="544.01" fill="#8b9ad9"></circle><circle r="5" cx="1393.04" cy="649.56" fill="#8b9ad9"></circle><circle r="5" cx="1608.79" cy="202.53" fill="#8b9ad9"></circle><circle r="5" cx="1594.54" cy="380.3" fill="#8b9ad9"></circle><circle r="5" cx="1570.41" cy="522.77" fill="#8b9ad9"></circle></g><defs><mask id="SvgjsMask1018"><rect width="1440" height="559" fill="#ffffff"></rect></mask><radialGradient id="SvgjsRadialGradient1019"><stop stop-color="#ffffff" offset="0.1"></stop><stop stop-color="#1735b3" offset="0.2"></stop><stop stop-color="rgba(23, 53, 179, 0)" offset="1"></stop></radialGradient></defs></svg>