<svg xmlns="http://www.w3.org/2000/svg" version="1.1" xmlns:xlink="http://www.w3.org/1999/xlink" xmlns:svgjs="http://svgjs.com/svgjs" width="1440" height="560" preserveAspectRatio="none" viewBox="0 0 1440 560"><g mask="url(&quot;#SvgjsMask1000&quot;)" fill="none"><rect width="1440" height="560" x="0" y="0" fill="#0e2a47"></rect><path d="M-88.33 399.98L-88.33 399.98" stroke="#132e65" stroke-width="1.5"></path><path d="M-88.33 399.98L-100.02 543.64" stroke="#132e65" stroke-width="1.5"></path><path d="M-88.33 399.98L64.09 379.69" stroke="#132e65" stroke-width="1.5"></path><path d="M-88.33 399.98L68.37 545.96" stroke="#132e65" stroke-width="1.5"></path><path d="M-100.02 543.64L-100.02 543.64" stroke="#132e65" stroke-width="1.5"></path><path d="M-100.02 543.64L-63.08 680.88" stroke="#132e65" stroke-width="1.5"></path><path d="M-63.08 680.88L-63.08 680.88" stroke="#132e65" stroke-width="1.5"></path><path d="M-63.08 680.88L110.04 671.63" stroke="#132e65" stroke-width="1.5"></path><path d="M-63.08 680.88L68.37 545.96" stroke="#132e65" stroke-width="1.5"></path><path d="M-63.08 680.88L204.39 700.68" stroke="#132e65" stroke-width="1.5"></path><path d="M64.09 379.69L64.09 379.69" stroke="#132e65" stroke-width="1.5"></path><path d="M64.09 379.69L195.47 373.6" stroke="#132e65" stroke-width="1.5"></path><path d="M64.09 379.69L68.37 545.96" stroke="#132e65" stroke-width="1.5"></path><path d="M64.09 379.69L208.61 536.78" stroke="#132e65" stroke-width="1.5"></path><path d="M64.09 379.69L-100.02 543.64" stroke="#132e65" stroke-width="1.5"></path><path d="M68.37 545.96L68.37 545.96" stroke="#132e65" stroke-width="1.5"></path><path d="M68.37 545.96L110.04 671.63" stroke="#132e65" stroke-width="1.5"></path><path d="M68.37 545.96L208.61 536.78" stroke="#132e65" stroke-width="1.5"></path><path d="M68.37 545.96L-100.02 543.64" stroke="#132e65" stroke-width="1.5"></path><path d="M110.04 671.63L110.04 671.63" stroke="#132e65" stroke-width="1.5"></path><path d="M110.04 671.63L204.39 700.68" stroke="#132e65" stroke-width="1.5"></path><path d="M110.04 671.63L208.61 536.78" stroke="#132e65" stroke-width="1.5"></path><path d="M110.04 671.63L-100.02 543.64" stroke="#132e65" stroke-width="1.5"></path><path d="M110.04 671.63L64.09 379.69" stroke="#132e65" stroke-width="1.5"></path><path d="M195.47 373.6L195.47 373.6" stroke="#132e65" stroke-width="1.5"></path><path d="M195.47 373.6L208.61 536.78" stroke="#132e65" stroke-width="1.5"></path><path d="M195.47 373.6L408.6 360.63" stroke="#132e65" stroke-width="1.5"></path><path d="M195.47 373.6L68.37 545.96" stroke="#132e65" stroke-width="1.5"></path><path d="M208.61 536.78L208.61 536.78" stroke="#132e65" stroke-width="1.5"></path><path d="M204.39 700.68L204.39 700.68" stroke="#132e65" stroke-width="1.5"></path><path d="M204.39 700.68L208.61 536.78" stroke="#132e65" stroke-width="1.5"></path><path d="M408.6 360.63L408.6 360.63" stroke="#132e65" stroke-width="1.5"></path><path d="M408.6 360.63L551.1 370.8" stroke="#132e65" stroke-width="1.5"></path><path d="M373.16 517.49L373.16 517.49" stroke="#132e65" stroke-width="1.5"></path><path d="M373.16 517.49L408.6 360.63" stroke="#132e65" stroke-width="1.5"></path><path d="M373.16 517.49L208.61 536.78" stroke="#132e65" stroke-width="1.5"></path><path d="M551.1 370.8L551.1 370.8" stroke="#132e65" stroke-width="1.5"></path><path d="M551.1 370.8L556.94 515.43" stroke="#132e65" stroke-width="1.5"></path><path d="M551.1 370.8L686.78 256.79" stroke="#132e65" stroke-width="1.5"></path><path d="M556.94 515.43L556.94 515.43" stroke="#132e65" stroke-width="1.5"></path><path d="M556.94 515.43L678.52 495.84" stroke="#132e65" stroke-width="1.5"></path><path d="M556.94 515.43L556.09 666.17" stroke="#132e65" stroke-width="1.5"></path><path d="M556.09 666.17L556.09 666.17" stroke="#132e65" stroke-width="1.5"></path><path d="M556.09 666.17L680.33 708.48" stroke="#132e65" stroke-width="1.5"></path><path d="M556.09 666.17L678.52 495.84" stroke="#132e65" stroke-width="1.5"></path><path d="M556.09 666.17L373.16 517.49" stroke="#132e65" stroke-width="1.5"></path><path d="M686.78 256.79L686.78 256.79" stroke="#132e65" stroke-width="1.5"></path><path d="M686.78 256.79L839.16 253.53" stroke="#132e65" stroke-width="1.5"></path><path d="M686.78 256.79L678.52 495.84" stroke="#132e65" stroke-width="1.5"></path><path d="M686.78 256.79L556.94 515.43" stroke="#132e65" stroke-width="1.5"></path><path d="M686.78 256.79L975.97 229.96" stroke="#132e65" stroke-width="1.5"></path><path d="M678.52 495.84L678.52 495.84" stroke="#132e65" stroke-width="1.5"></path><path d="M678.52 495.84L551.1 370.8" stroke="#132e65" stroke-width="1.5"></path><path d="M678.52 495.84L680.33 708.48" stroke="#132e65" stroke-width="1.5"></path><path d="M678.52 495.84L796.04 689.13" stroke="#132e65" stroke-width="1.5"></path><path d="M680.33 708.48L680.33 708.48" stroke="#132e65" stroke-width="1.5"></path><path d="M680.33 708.48L796.04 689.13" stroke="#132e65" stroke-width="1.5"></path><path d="M680.33 708.48L556.94 515.43" stroke="#132e65" stroke-width="1.5"></path><path d="M839.16 253.53L839.16 253.53" stroke="#132e65" stroke-width="1.5"></path><path d="M839.16 253.53L975.97 229.96" stroke="#132e65" stroke-width="1.5"></path><path d="M839.16 253.53L964.74 368.39" stroke="#132e65" stroke-width="1.5"></path><path d="M796.04 689.13L796.04 689.13" stroke="#132e65" stroke-width="1.5"></path><path d="M796.04 689.13L951.1 637.66" stroke="#132e65" stroke-width="1.5"></path><path d="M796.04 689.13L963.23 541.42" stroke="#132e65" stroke-width="1.5"></path><path d="M796.04 689.13L556.09 666.17" stroke="#132e65" stroke-width="1.5"></path><path d="M949.52 -106.08L949.52 -106.08" stroke="#132e65" stroke-width="1.5"></path><path d="M949.52 -106.08L1112.87 -44.81" stroke="#132e65" stroke-width="1.5"></path><path d="M949.52 -106.08L941.06 90.19" stroke="#132e65" stroke-width="1.5"></path><path d="M949.52 -106.08L1134.83 79.37" stroke="#132e65" stroke-width="1.5"></path><path d="M949.52 -106.08L1281.52 -71.12" stroke="#132e65" stroke-width="1.5"></path><path d="M941.06 90.19L941.06 90.19" stroke="#132e65" stroke-width="1.5"></path><path d="M941.06 90.19L975.97 229.96" stroke="#132e65" stroke-width="1.5"></path><path d="M941.06 90.19L839.16 253.53" stroke="#132e65" stroke-width="1.5"></path><path d="M941.06 90.19L1134.83 79.37" stroke="#132e65" stroke-width="1.5"></path><path d="M975.97 229.96L975.97 229.96" stroke="#132e65" stroke-width="1.5"></path><path d="M975.97 229.96L1099.58 233.35" stroke="#132e65" stroke-width="1.5"></path><path d="M975.97 229.96L964.74 368.39" stroke="#132e65" stroke-width="1.5"></path><path d="M964.74 368.39L964.74 368.39" stroke="#132e65" stroke-width="1.5"></path><path d="M964.74 368.39L1120.35 386.4" stroke="#132e65" stroke-width="1.5"></path><path d="M963.23 541.42L963.23 541.42" stroke="#132e65" stroke-width="1.5"></path><path d="M963.23 541.42L951.1 637.66" stroke="#132e65" stroke-width="1.5"></path><path d="M963.23 541.42L964.74 368.39" stroke="#132e65" stroke-width="1.5"></path><path d="M963.23 541.42L1140.72 517.45" stroke="#132e65" stroke-width="1.5"></path><path d="M951.1 637.66L951.1 637.66" stroke="#132e65" stroke-width="1.5"></path><path d="M951.1 637.66L1157.88 694.03" stroke="#132e65" stroke-width="1.5"></path><path d="M951.1 637.66L1140.72 517.45" stroke="#132e65" stroke-width="1.5"></path><path d="M951.1 637.66L964.74 368.39" stroke="#132e65" stroke-width="1.5"></path><path d="M1112.87 -44.81L1112.87 -44.81" stroke="#132e65" stroke-width="1.5"></path><path d="M1112.87 -44.81L1134.83 79.37" stroke="#132e65" stroke-width="1.5"></path><path d="M1112.87 -44.81L1281.52 -71.12" stroke="#132e65" stroke-width="1.5"></path><path d="M1112.87 -44.81L941.06 90.19" stroke="#132e65" stroke-width="1.5"></path><path d="M1112.87 -44.81L1309.99 71.79" stroke="#132e65" stroke-width="1.5"></path><path d="M1112.87 -44.81L1242.48 191.03" stroke="#132e65" stroke-width="1.5"></path><path d="M1134.83 79.37L1134.83 79.37" stroke="#132e65" stroke-width="1.5"></path><path d="M1134.83 79.37L1242.48 191.03" stroke="#132e65" stroke-width="1.5"></path><path d="M1134.83 79.37L1099.58 233.35" stroke="#132e65" stroke-width="1.5"></path><path d="M1134.83 79.37L1309.99 71.79" stroke="#132e65" stroke-width="1.5"></path><path d="M1099.58 233.35L1099.58 233.35" stroke="#132e65" stroke-width="1.5"></path><path d="M1099.58 233.35L1242.48 191.03" stroke="#132e65" stroke-width="1.5"></path><path d="M1099.58 233.35L1120.35 386.4" stroke="#132e65" stroke-width="1.5"></path><path d="M1099.58 233.35L964.74 368.39" stroke="#132e65" stroke-width="1.5"></path><path d="M1099.58 233.35L941.06 90.19" stroke="#132e65" stroke-width="1.5"></path><path d="M1120.35 386.4L1120.35 386.4" stroke="#132e65" stroke-width="1.5"></path><path d="M1120.35 386.4L1140.72 517.45" stroke="#132e65" stroke-width="1.5"></path><path d="M1120.35 386.4L1255.59 400.1" stroke="#132e65" stroke-width="1.5"></path><path d="M1120.35 386.4L1242.12 538.74" stroke="#132e65" stroke-width="1.5"></path><path d="M1140.72 517.45L1140.72 517.45" stroke="#132e65" stroke-width="1.5"></path><path d="M1140.72 517.45L1242.12 538.74" stroke="#132e65" stroke-width="1.5"></path><path d="M1157.88 694.03L1157.88 694.03" stroke="#132e65" stroke-width="1.5"></path><path d="M1157.88 694.03L1290.69 675.93" stroke="#132e65" stroke-width="1.5"></path><path d="M1157.88 694.03L1242.12 538.74" stroke="#132e65" stroke-width="1.5"></path><path d="M1157.88 694.03L1140.72 517.45" stroke="#132e65" stroke-width="1.5"></path><path d="M1281.52 -71.12L1281.52 -71.12" stroke="#132e65" stroke-width="1.5"></path><path d="M1281.52 -71.12L1413.37 -101.78" stroke="#132e65" stroke-width="1.5"></path><path d="M1281.52 -71.12L1309.99 71.79" stroke="#132e65" stroke-width="1.5"></path><path d="M1281.52 -71.12L1415.69 90.56" stroke="#132e65" stroke-width="1.5"></path><path d="M1309.99 71.79L1309.99 71.79" stroke="#132e65" stroke-width="1.5"></path><path d="M1309.99 71.79L1415.69 90.56" stroke="#132e65" stroke-width="1.5"></path><path d="M1309.99 71.79L1242.48 191.03" stroke="#132e65" stroke-width="1.5"></path><path d="M1309.99 71.79L1428.15 227.83" stroke="#132e65" stroke-width="1.5"></path><path d="M1242.48 191.03L1242.48 191.03" stroke="#132e65" stroke-width="1.5"></path><path d="M1242.48 191.03L1428.15 227.83" stroke="#132e65" stroke-width="1.5"></path><path d="M1242.48 191.03L1415.69 90.56" stroke="#132e65" stroke-width="1.5"></path><path d="M1255.59 400.1L1255.59 400.1" stroke="#132e65" stroke-width="1.5"></path><path d="M1255.59 400.1L1388.56 377.74" stroke="#132e65" stroke-width="1.5"></path><path d="M1255.59 400.1L1242.12 538.74" stroke="#132e65" stroke-width="1.5"></path><path d="M1242.12 538.74L1242.12 538.74" stroke="#132e65" stroke-width="1.5"></path><path d="M1290.69 675.93L1290.69 675.93" stroke="#132e65" stroke-width="1.5"></path><path d="M1290.69 675.93L1242.12 538.74" stroke="#132e65" stroke-width="1.5"></path><path d="M1290.69 675.93L1140.72 517.45" stroke="#132e65" stroke-width="1.5"></path><path d="M1290.69 675.93L1255.59 400.1" stroke="#132e65" stroke-width="1.5"></path><path d="M1413.37 -101.78L1413.37 -101.78" stroke="#132e65" stroke-width="1.5"></path><path d="M1413.37 -101.78L1572.14 -96.49" stroke="#132e65" stroke-width="1.5"></path><path d="M1413.37 -101.78L1415.69 90.56" stroke="#132e65" stroke-width="1.5"></path><path d="M1413.37 -101.78L1309.99 71.79" stroke="#132e65" stroke-width="1.5"></path><path d="M1413.37 -101.78L1570.36 95.41" stroke="#132e65" stroke-width="1.5"></path><path d="M1413.37 -101.78L1112.87 -44.81" stroke="#132e65" stroke-width="1.5"></path><path d="M1415.69 90.56L1415.69 90.56" stroke="#132e65" stroke-width="1.5"></path><path d="M1415.69 90.56L1428.15 227.83" stroke="#132e65" stroke-width="1.5"></path><path d="M1415.69 90.56L1570.36 95.41" stroke="#132e65" stroke-width="1.5"></path><path d="M1428.15 227.83L1428.15 227.83" stroke="#132e65" stroke-width="1.5"></path><path d="M1428.15 227.83L1388.56 377.74" stroke="#132e65" stroke-width="1.5"></path><path d="M1428.15 227.83L1592.77 237.43" stroke="#132e65" stroke-width="1.5"></path><path d="M1388.56 377.74L1388.56 377.74" stroke="#132e65" stroke-width="1.5"></path><path d="M1572.14 -96.49L1572.14 -96.49" stroke="#132e65" stroke-width="1.5"></path><path d="M1572.14 -96.49L1570.36 95.41" stroke="#132e65" stroke-width="1.5"></path><path d="M1572.14 -96.49L1415.69 90.56" stroke="#132e65" stroke-width="1.5"></path><path d="M1570.36 95.41L1570.36 95.41" stroke="#132e65" stroke-width="1.5"></path><path d="M1570.36 95.41L1592.77 237.43" stroke="#132e65" stroke-width="1.5"></path><path d="M1570.36 95.41L1428.15 227.83" stroke="#132e65" stroke-width="1.5"></path><path d="M1592.77 237.43L1592.77 237.43" stroke="#132e65" stroke-width="1.5"></path><path d="M1592.77 237.43L1569.8 377.33" stroke="#132e65" stroke-width="1.5"></path><path d="M1592.77 237.43L1415.69 90.56" stroke="#132e65" stroke-width="1.5"></path><path d="M1569.8 377.33L1569.8 377.33" stroke="#132e65" stroke-width="1.5"></path><path d="M1569.8 377.33L1577.32 529.48" stroke="#132e65" stroke-width="1.5"></path><path d="M1577.32 529.48L1577.32 529.48" stroke="#132e65" stroke-width="1.5"></path><path d="M1577.32 529.48L1609.05 668.68" stroke="#132e65" stroke-width="1.5"></path><path d="M1577.32 529.48L1388.56 377.74" stroke="#132e65" stroke-width="1.5"></path><path d="M1609.05 668.68L1609.05 668.68" stroke="#132e65" stroke-width="1.5"></path><circle r="5" cx="-88.33" cy="399.98" fill="#132e65"></circle><circle r="5" cx="-100.02" cy="543.64" fill="#132e65"></circle><circle r="5" cx="-63.08" cy="680.88" fill="#132e65"></circle><circle r="5" cx="64.09" cy="379.69" fill="#132e65"></circle><circle r="5" cx="68.37" cy="545.96" fill="#132e65"></circle><circle r="5" cx="110.04" cy="671.63" fill="#132e65"></circle><circle r="5" cx="195.47" cy="373.6" fill="#132e65"></circle><circle r="5" cx="208.61" cy="536.78" fill="#132e65"></circle><circle r="5" cx="204.39" cy="700.68" fill="#132e65"></circle><circle r="5" cx="408.6" cy="360.63" fill="#132e65"></circle><circle r="5" cx="373.16" cy="517.49" fill="#132e65"></circle><circle r="5" cx="551.1" cy="370.8" fill="#132e65"></circle><circle r="5" cx="556.94" cy="515.43" fill="#132e65"></circle><circle r="5" cx="556.09" cy="666.17" fill="#132e65"></circle><circle r="5" cx="686.78" cy="256.79" fill="#132e65"></circle><circle r="5" cx="678.52" cy="495.84" fill="#132e65"></circle><circle r="5" cx="680.33" cy="708.48" fill="#132e65"></circle><circle r="5" cx="839.16" cy="253.53" fill="#132e65"></circle><circle r="5" cx="796.04" cy="689.13" fill="#132e65"></circle><circle r="5" cx="949.52" cy="-106.08" fill="#132e65"></circle><circle r="5" cx="941.06" cy="90.19" fill="#132e65"></circle><circle r="5" cx="975.97" cy="229.96" fill="#132e65"></circle><circle r="5" cx="964.74" cy="368.39" fill="#132e65"></circle><circle r="5" cx="963.23" cy="541.42" fill="#132e65"></circle><circle r="5" cx="951.1" cy="637.66" fill="#132e65"></circle><circle r="5" cx="1112.87" cy="-44.81" fill="#132e65"></circle><circle r="5" cx="1134.83" cy="79.37" fill="#132e65"></circle><circle r="5" cx="1099.58" cy="233.35" fill="#132e65"></circle><circle r="5" cx="1120.35" cy="386.4" fill="#132e65"></circle><circle r="5" cx="1140.72" cy="517.45" fill="#132e65"></circle><circle r="5" cx="1157.88" cy="694.03" fill="#132e65"></circle><circle r="5" cx="1281.52" cy="-71.12" fill="#132e65"></circle><circle r="5" cx="1309.99" cy="71.79" fill="#132e65"></circle><circle r="5" cx="1242.48" cy="191.03" fill="#132e65"></circle><circle r="5" cx="1255.59" cy="400.1" fill="#132e65"></circle><circle r="5" cx="1242.12" cy="538.74" fill="#132e65"></circle><circle r="5" cx="1290.69" cy="675.93" fill="#132e65"></circle><circle r="5" cx="1413.37" cy="-101.78" fill="#132e65"></circle><circle r="5" cx="1415.69" cy="90.56" fill="#132e65"></circle><circle r="5" cx="1428.15" cy="227.83" fill="#132e65"></circle><circle r="5" cx="1388.56" cy="377.74" fill="#132e65"></circle><circle r="5" cx="1572.14" cy="-96.49" fill="#132e65"></circle><circle r="5" cx="1570.36" cy="95.41" fill="#132e65"></circle><circle r="5" cx="1592.77" cy="237.43" fill="#132e65"></circle><circle r="5" cx="1569.8" cy="377.33" fill="#132e65"></circle><circle r="5" cx="1577.32" cy="529.48" fill="#132e65"></circle><circle r="5" cx="1609.05" cy="668.68" fill="#132e65"></circle><path d="M254.27 544.21L254.27 544.21" stroke="hsl(228.5, 77.2%, 51.5%)" stroke-width="1.5"></path><path d="M254.27 544.21L349.21 537.7" stroke="hsl(228.5, 77.2%, 51.5%)" stroke-width="1.5"></path><path d="M254.27 544.21L88.75 490.52" stroke="hsl(228.5, 77.2%, 51.5%)" stroke-width="1.5"></path><path d="M254.27 544.21L401.29 675.13" stroke="hsl(228.5, 77.2%, 51.5%)" stroke-width="1.5"></path><path d="M254.27 544.21L92.48 693.55" stroke="hsl(228.5, 77.2%, 51.5%)" stroke-width="1.5"></path><path d="M254.27 544.21L534.47 549.03" stroke="hsl(228.5, 77.2%, 51.5%)" stroke-width="1.5"></path><path d="M254.27 544.21L-80.12 518.49" stroke="hsl(228.5, 77.2%, 51.5%)" stroke-width="1.5"></path><path d="M534.47 549.03L534.47 549.03" stroke="hsl(228.5, 77.2%, 51.5%)" stroke-width="1.5"></path><path d="M534.47 549.03L670.3 504.73" stroke="hsl(228.5, 77.2%, 51.5%)" stroke-width="1.5"></path><path d="M534.47 549.03L401.29 675.13" stroke="hsl(228.5, 77.2%, 51.5%)" stroke-width="1.5"></path><path d="M534.47 549.03L349.21 537.7" stroke="hsl(228.5, 77.2%, 51.5%)" stroke-width="1.5"></path><path d="M534.47 549.03L659.03 706.45" stroke="hsl(228.5, 77.2%, 51.5%)" stroke-width="1.5"></path><path d="M843.84 377.98L843.84 377.98" stroke="hsl(228.5, 77.2%, 51.5%)" stroke-width="1.5"></path><path d="M843.84 377.98L947.13 387.87" stroke="hsl(228.5, 77.2%, 51.5%)" stroke-width="1.5"></path><path d="M843.84 377.98L842.44 525.62" stroke="hsl(228.5, 77.2%, 51.5%)" stroke-width="1.5"></path><path d="M843.84 377.98L948.81 520.36" stroke="hsl(228.5, 77.2%, 51.5%)" stroke-width="1.5"></path><path d="M843.84 377.98L670.3 504.73" stroke="hsl(228.5, 77.2%, 51.5%)" stroke-width="1.5"></path><path d="M843.84 377.98L1097.37 380.51" stroke="hsl(228.5, 77.2%, 51.5%)" stroke-width="1.5"></path><path d="M843.84 377.98L801.22 680.98" stroke="hsl(228.5, 77.2%, 51.5%)" stroke-width="1.5"></path><path d="M801.22 680.98L801.22 680.98" stroke="hsl(228.5, 77.2%, 51.5%)" stroke-width="1.5"></path><path d="M801.22 680.98L659.03 706.45" stroke="hsl(228.5, 77.2%, 51.5%)" stroke-width="1.5"></path><path d="M801.22 680.98L842.44 525.62" stroke="hsl(228.5, 77.2%, 51.5%)" stroke-width="1.5"></path><path d="M801.22 680.98L948.81 520.36" stroke="hsl(228.5, 77.2%, 51.5%)" stroke-width="1.5"></path><path d="M948.81 520.36L948.81 520.36" stroke="hsl(228.5, 77.2%, 51.5%)" stroke-width="1.5"></path><path d="M948.81 520.36L842.44 525.62" stroke="hsl(228.5, 77.2%, 51.5%)" stroke-width="1.5"></path><path d="M948.81 520.36L947.13 387.87" stroke="hsl(228.5, 77.2%, 51.5%)" stroke-width="1.5"></path><path d="M948.81 520.36L1121.75 547.01" stroke="hsl(228.5, 77.2%, 51.5%)" stroke-width="1.5"></path><path d="M1097.37 380.51L1097.37 380.51" stroke="hsl(228.5, 77.2%, 51.5%)" stroke-width="1.5"></path><path d="M1097.37 380.51L947.13 387.87" stroke="hsl(228.5, 77.2%, 51.5%)" stroke-width="1.5"></path><path d="M1097.37 380.51L1248.71 387.77" stroke="hsl(228.5, 77.2%, 51.5%)" stroke-width="1.5"></path><path d="M1097.37 380.51L1121.75 547.01" stroke="hsl(228.5, 77.2%, 51.5%)" stroke-width="1.5"></path><path d="M1097.37 380.51L1144.34 213.4" stroke="hsl(228.5, 77.2%, 51.5%)" stroke-width="1.5"></path><path d="M1097.37 380.51L948.81 520.36" stroke="hsl(228.5, 77.2%, 51.5%)" stroke-width="1.5"></path><path d="M1132.36 640.26L1132.36 640.26" stroke="hsl(228.5, 77.2%, 51.5%)" stroke-width="1.5"></path><path d="M1132.36 640.26L1121.75 547.01" stroke="hsl(228.5, 77.2%, 51.5%)" stroke-width="1.5"></path><path d="M1132.36 640.26L1253.04 659.22" stroke="hsl(228.5, 77.2%, 51.5%)" stroke-width="1.5"></path><path d="M1132.36 640.26L1283.56 533.97" stroke="hsl(228.5, 77.2%, 51.5%)" stroke-width="1.5"></path><path d="M1312.26 45.29L1312.26 45.29" stroke="hsl(228.5, 77.2%, 51.5%)" stroke-width="1.5"></path><path d="M1312.26 45.29L1404.58 87.98" stroke="hsl(228.5, 77.2%, 51.5%)" stroke-width="1.5"></path><path d="M1312.26 45.29L1404.17 -49.64" stroke="hsl(228.5, 77.2%, 51.5%)" stroke-width="1.5"></path><path d="M1312.26 45.29L1244.35 223.99" stroke="hsl(228.5, 77.2%, 51.5%)" stroke-width="1.5"></path><path d="M1312.26 45.29L1459.97 195.79" stroke="hsl(228.5, 77.2%, 51.5%)" stroke-width="1.5"></path><path d="M1404.58 87.98L1404.58 87.98" stroke="hsl(228.5, 77.2%, 51.5%)" stroke-width="1.5"></path><path d="M1404.58 87.98L1459.97 195.79" stroke="hsl(228.5, 77.2%, 51.5%)" stroke-width="1.5"></path><path d="M1404.58 87.98L1404.17 -49.64" stroke="hsl(228.5, 77.2%, 51.5%)" stroke-width="1.5"></path><path d="M1459.97 195.79L1459.97 195.79" stroke="hsl(228.5, 77.2%, 51.5%)" stroke-width="1.5"></path><path d="M1459.97 195.79L1562.14 238.54" stroke="hsl(228.5, 77.2%, 51.5%)" stroke-width="1.5"></path><path d="M1459.97 195.79L1434.89 356.33" stroke="hsl(228.5, 77.2%, 51.5%)" stroke-width="1.5"></path><path d="M1459.97 195.79L1563.79 68" stroke="hsl(228.5, 77.2%, 51.5%)" stroke-width="1.5"></path><path d="M1393.07 641.13L1393.07 641.13" stroke="hsl(228.5, 77.2%, 51.5%)" stroke-width="1.5"></path><path d="M1393.07 641.13L1459.67 543.65" stroke="hsl(228.5, 77.2%, 51.5%)" stroke-width="1.5"></path><path d="M1393.07 641.13L1253.04 659.22" stroke="hsl(228.5, 77.2%, 51.5%)" stroke-width="1.5"></path><path d="M1393.07 641.13L1283.56 533.97" stroke="hsl(228.5, 77.2%, 51.5%)" stroke-width="1.5"></path><path d="M1393.07 641.13L1548.63 640.26" stroke="hsl(228.5, 77.2%, 51.5%)" stroke-width="1.5"></path><path d="M-80.12 518.49L-80.12 518.49" stroke="hsl(228.5, 77.2%, 51.5%)" stroke-width="1.5"></path><path d="M-80.12 518.49L-95.01 669.89" stroke="hsl(228.5, 77.2%, 51.5%)" stroke-width="1.5"></path><path d="M-80.12 518.49L88.75 490.52" stroke="hsl(228.5, 77.2%, 51.5%)" stroke-width="1.5"></path><path d="M-80.12 518.49L92.48 693.55" stroke="hsl(228.5, 77.2%, 51.5%)" stroke-width="1.5"></path><path d="M-80.12 518.49L349.21 537.7" stroke="hsl(228.5, 77.2%, 51.5%)" stroke-width="1.5"></path><path d="M-80.12 518.49L401.29 675.13" stroke="hsl(228.5, 77.2%, 51.5%)" stroke-width="1.5"></path><path d="M-95.01 669.89L-95.01 669.89" stroke="hsl(228.5, 77.2%, 51.5%)" stroke-width="1.5"></path><path d="M-95.01 669.89L92.48 693.55" stroke="hsl(228.5, 77.2%, 51.5%)" stroke-width="1.5"></path><path d="M-95.01 669.89L88.75 490.52" stroke="hsl(228.5, 77.2%, 51.5%)" stroke-width="1.5"></path><path d="M-95.01 669.89L254.27 544.21" stroke="hsl(228.5, 77.2%, 51.5%)" stroke-width="1.5"></path><path d="M-95.01 669.89L349.21 537.7" stroke="hsl(228.5, 77.2%, 51.5%)" stroke-width="1.5"></path><path d="M-95.01 669.89L401.29 675.13" stroke="hsl(228.5, 77.2%, 51.5%)" stroke-width="1.5"></path><path d="M88.75 490.52L88.75 490.52" stroke="hsl(228.5, 77.2%, 51.5%)" stroke-width="1.5"></path><path d="M88.75 490.52L92.48 693.55" stroke="hsl(228.5, 77.2%, 51.5%)" stroke-width="1.5"></path><path d="M88.75 490.52L349.21 537.7" stroke="hsl(228.5, 77.2%, 51.5%)" stroke-width="1.5"></path><path d="M92.48 693.55L92.48 693.55" stroke="hsl(228.5, 77.2%, 51.5%)" stroke-width="1.5"></path><path d="M92.48 693.55L349.21 537.7" stroke="hsl(228.5, 77.2%, 51.5%)" stroke-width="1.5"></path><path d="M92.48 693.55L401.29 675.13" stroke="hsl(228.5, 77.2%, 51.5%)" stroke-width="1.5"></path><path d="M349.21 537.7L349.21 537.7" stroke="hsl(228.5, 77.2%, 51.5%)" stroke-width="1.5"></path><path d="M349.21 537.7L401.29 675.13" stroke="hsl(228.5, 77.2%, 51.5%)" stroke-width="1.5"></path><path d="M401.29 675.13L401.29 675.13" stroke="hsl(228.5, 77.2%, 51.5%)" stroke-width="1.5"></path><path d="M670.3 504.73L670.3 504.73" stroke="hsl(228.5, 77.2%, 51.5%)" stroke-width="1.5"></path><path d="M670.3 504.73L842.44 525.62" stroke="hsl(228.5, 77.2%, 51.5%)" stroke-width="1.5"></path><path d="M670.3 504.73L659.03 706.45" stroke="hsl(228.5, 77.2%, 51.5%)" stroke-width="1.5"></path><path d="M670.3 504.73L801.22 680.98" stroke="hsl(228.5, 77.2%, 51.5%)" stroke-width="1.5"></path><path d="M670.3 504.73L948.81 520.36" stroke="hsl(228.5, 77.2%, 51.5%)" stroke-width="1.5"></path><path d="M659.03 706.45L659.03 706.45" stroke="hsl(228.5, 77.2%, 51.5%)" stroke-width="1.5"></path><path d="M659.03 706.45L842.44 525.62" stroke="hsl(228.5, 77.2%, 51.5%)" stroke-width="1.5"></path><path d="M659.03 706.45L401.29 675.13" stroke="hsl(228.5, 77.2%, 51.5%)" stroke-width="1.5"></path><path d="M659.03 706.45L948.81 520.36" stroke="hsl(228.5, 77.2%, 51.5%)" stroke-width="1.5"></path><path d="M842.44 525.62L842.44 525.62" stroke="hsl(228.5, 77.2%, 51.5%)" stroke-width="1.5"></path><path d="M842.44 525.62L947.13 387.87" stroke="hsl(228.5, 77.2%, 51.5%)" stroke-width="1.5"></path><path d="M947.13 387.87L947.13 387.87" stroke="hsl(228.5, 77.2%, 51.5%)" stroke-width="1.5"></path><path d="M947.13 387.87L1121.75 547.01" stroke="hsl(228.5, 77.2%, 51.5%)" stroke-width="1.5"></path><path d="M1144.34 213.4L1144.34 213.4" stroke="hsl(228.5, 77.2%, 51.5%)" stroke-width="1.5"></path><path d="M1144.34 213.4L1244.35 223.99" stroke="hsl(228.5, 77.2%, 51.5%)" stroke-width="1.5"></path><path d="M1121.75 547.01L1121.75 547.01" stroke="hsl(228.5, 77.2%, 51.5%)" stroke-width="1.5"></path><path d="M1244.35 223.99L1244.35 223.99" stroke="hsl(228.5, 77.2%, 51.5%)" stroke-width="1.5"></path><path d="M1244.35 223.99L1248.71 387.77" stroke="hsl(228.5, 77.2%, 51.5%)" stroke-width="1.5"></path><path d="M1248.71 387.77L1248.71 387.77" stroke="hsl(228.5, 77.2%, 51.5%)" stroke-width="1.5"></path><path d="M1248.71 387.77L1283.56 533.97" stroke="hsl(228.5, 77.2%, 51.5%)" stroke-width="1.5"></path><path d="M1283.56 533.97L1283.56 533.97" stroke="hsl(228.5, 77.2%, 51.5%)" stroke-width="1.5"></path><path d="M1283.56 533.97L1253.04 659.22" stroke="hsl(228.5, 77.2%, 51.5%)" stroke-width="1.5"></path><path d="M1253.04 659.22L1253.04 659.22" stroke="hsl(228.5, 77.2%, 51.5%)" stroke-width="1.5"></path><path d="M1253.04 659.22L1121.75 547.01" stroke="hsl(228.5, 77.2%, 51.5%)" stroke-width="1.5"></path><path d="M1404.17 -49.64L1404.17 -49.64" stroke="hsl(228.5, 77.2%, 51.5%)" stroke-width="1.5"></path><path d="M1404.17 -49.64L1563.79 68" stroke="hsl(228.5, 77.2%, 51.5%)" stroke-width="1.5"></path><path d="M1404.17 -49.64L1606.3 -80.28" stroke="hsl(228.5, 77.2%, 51.5%)" stroke-width="1.5"></path><path d="M1404.17 -49.64L1459.97 195.79" stroke="hsl(228.5, 77.2%, 51.5%)" stroke-width="1.5"></path><path d="M1404.17 -49.64L1244.35 223.99" stroke="hsl(228.5, 77.2%, 51.5%)" stroke-width="1.5"></path><path d="M1434.89 356.33L1434.89 356.33" stroke="hsl(228.5, 77.2%, 51.5%)" stroke-width="1.5"></path><path d="M1434.89 356.33L1563.23 392.91" stroke="hsl(228.5, 77.2%, 51.5%)" stroke-width="1.5"></path><path d="M1434.89 356.33L1562.14 238.54" stroke="hsl(228.5, 77.2%, 51.5%)" stroke-width="1.5"></path><path d="M1434.89 356.33L1248.71 387.77" stroke="hsl(228.5, 77.2%, 51.5%)" stroke-width="1.5"></path><path d="M1434.89 356.33L1459.67 543.65" stroke="hsl(228.5, 77.2%, 51.5%)" stroke-width="1.5"></path><path d="M1459.67 543.65L1459.67 543.65" stroke="hsl(228.5, 77.2%, 51.5%)" stroke-width="1.5"></path><path d="M1459.67 543.65L1563.36 514.5" stroke="hsl(228.5, 77.2%, 51.5%)" stroke-width="1.5"></path><path d="M1606.3 -80.28L1606.3 -80.28" stroke="hsl(228.5, 77.2%, 51.5%)" stroke-width="1.5"></path><path d="M1606.3 -80.28L1563.79 68" stroke="hsl(228.5, 77.2%, 51.5%)" stroke-width="1.5"></path><path d="M1606.3 -80.28L1404.58 87.98" stroke="hsl(228.5, 77.2%, 51.5%)" stroke-width="1.5"></path><path d="M1606.3 -80.28L1459.97 195.79" stroke="hsl(228.5, 77.2%, 51.5%)" stroke-width="1.5"></path><path d="M1563.79 68L1563.79 68" stroke="hsl(228.5, 77.2%, 51.5%)" stroke-width="1.5"></path><path d="M1563.79 68L1404.58 87.98" stroke="hsl(228.5, 77.2%, 51.5%)" stroke-width="1.5"></path><path d="M1563.79 68L1562.14 238.54" stroke="hsl(228.5, 77.2%, 51.5%)" stroke-width="1.5"></path><path d="M1562.14 238.54L1562.14 238.54" stroke="hsl(228.5, 77.2%, 51.5%)" stroke-width="1.5"></path><path d="M1562.14 238.54L1563.23 392.91" stroke="hsl(228.5, 77.2%, 51.5%)" stroke-width="1.5"></path><path d="M1563.23 392.91L1563.23 392.91" stroke="hsl(228.5, 77.2%, 51.5%)" stroke-width="1.5"></path><path d="M1563.23 392.91L1563.36 514.5" stroke="hsl(228.5, 77.2%, 51.5%)" stroke-width="1.5"></path><path d="M1563.23 392.91L1459.67 543.65" stroke="hsl(228.5, 77.2%, 51.5%)" stroke-width="1.5"></path><path d="M1563.23 392.91L1459.97 195.79" stroke="hsl(228.5, 77.2%, 51.5%)" stroke-width="1.5"></path><path d="M1563.23 392.91L1548.63 640.26" stroke="hsl(228.5, 77.2%, 51.5%)" stroke-width="1.5"></path><path d="M1563.36 514.5L1563.36 514.5" stroke="hsl(228.5, 77.2%, 51.5%)" stroke-width="1.5"></path><path d="M1563.36 514.5L1548.63 640.26" stroke="hsl(228.5, 77.2%, 51.5%)" stroke-width="1.5"></path><path d="M1563.36 514.5L1434.89 356.33" stroke="hsl(228.5, 77.2%, 51.5%)" stroke-width="1.5"></path><path d="M1563.36 514.5L1393.07 641.13" stroke="hsl(228.5, 77.2%, 51.5%)" stroke-width="1.5"></path><path d="M1563.36 514.5L1562.14 238.54" stroke="hsl(228.5, 77.2%, 51.5%)" stroke-width="1.5"></path><path d="M1548.63 640.26L1548.63 640.26" stroke="hsl(228.5, 77.2%, 51.5%)" stroke-width="1.5"></path><path d="M1548.63 640.26L1459.67 543.65" stroke="hsl(228.5, 77.2%, 51.5%)" stroke-width="1.5"></path><circle r="25" cx="254.27" cy="544.21" fill="url(#SvgjsRadialGradient1001)"></circle><circle r="25" cx="534.47" cy="549.03" fill="url(#SvgjsRadialGradient1001)"></circle><circle r="25" cx="843.84" cy="377.98" fill="url(#SvgjsRadialGradient1001)"></circle><circle r="25" cx="801.22" cy="680.98" fill="url(#SvgjsRadialGradient1001)"></circle><circle r="25" cx="948.81" cy="520.36" fill="url(#SvgjsRadialGradient1001)"></circle><circle r="25" cx="1097.37" cy="380.51" fill="url(#SvgjsRadialGradient1001)"></circle><circle r="25" cx="1132.36" cy="640.26" fill="url(#SvgjsRadialGradient1001)"></circle><circle r="25" cx="1312.26" cy="45.29" fill="url(#SvgjsRadialGradient1001)"></circle><circle r="25" cx="1404.58" cy="87.98" fill="url(#SvgjsRadialGradient1001)"></circle><circle r="25" cx="1459.97" cy="195.79" fill="url(#SvgjsRadialGradient1001)"></circle><circle r="25" cx="1393.07" cy="641.13" fill="url(#SvgjsRadialGradient1001)"></circle><circle r="5" cx="-80.12" cy="518.49" fill="#8b9ad9"></circle><circle r="5" cx="-95.01" cy="669.89" fill="#8b9ad9"></circle><circle r="5" cx="88.75" cy="490.52" fill="#8b9ad9"></circle><circle r="5" cx="92.48" cy="693.55" fill="#8b9ad9"></circle><circle r="5" cx="349.21" cy="537.7" fill="#8b9ad9"></circle><circle r="5" cx="401.29" cy="675.13" fill="#8b9ad9"></circle><circle r="5" cx="670.3" cy="504.73" fill="#8b9ad9"></circle><circle r="5" cx="659.03" cy="706.45" fill="#8b9ad9"></circle><circle r="5" cx="842.44" cy="525.62" fill="#8b9ad9"></circle><circle r="5" cx="947.13" cy="387.87" fill="#8b9ad9"></circle><circle r="5" cx="1144.34" cy="213.4" fill="#8b9ad9"></circle><circle r="5" cx="1121.75" cy="547.01" fill="#8b9ad9"></circle><circle r="5" cx="1244.35" cy="223.99" fill="#8b9ad9"></circle><circle r="5" cx="1248.71" cy="387.77" fill="#8b9ad9"></circle><circle r="5" cx="1283.56" cy="533.97" fill="#8b9ad9"></circle><circle r="5" cx="1253.04" cy="659.22" fill="#8b9ad9"></circle><circle r="5" cx="1404.17" cy="-49.64" fill="#8b9ad9"></circle><circle r="5" cx="1434.89" cy="356.33" fill="#8b9ad9"></circle><circle r="5" cx="1459.67" cy="543.65" fill="#8b9ad9"></circle><circle r="5" cx="1606.3" cy="-80.28" fill="#8b9ad9"></circle><circle r="5" cx="1563.79" cy="68" fill="#8b9ad9"></circle><circle r="5" cx="1562.14" cy="238.54" fill="#8b9ad9"></circle><circle r="5" cx="1563.23" cy="392.91" fill="#8b9ad9"></circle><circle r="5" cx="1563.36" cy="514.5" fill="#8b9ad9"></circle><circle r="5" cx="1548.63" cy="640.26" fill="#8b9ad9"></circle></g><defs><mask id="SvgjsMask1000"><rect width="1440" height="560" fill="#ffffff"></rect></mask><radialGradient id="SvgjsRadialGradient1001"><stop stop-color="#ffffff" offset="0.1"></stop><stop stop-color="#1735b3" offset="0.2"></stop><stop stop-color="rgba(23, 53, 179, 0)" offset="1"></stop></radialGradient></defs></svg>