<svg xmlns="http://www.w3.org/2000/svg" version="1.1" xmlns:xlink="http://www.w3.org/1999/xlink" xmlns:svgjs="http://svgjs.com/svgjs" width="1461" height="532" preserveAspectRatio="none" viewBox="0 0 1461 532"><g mask="url(&quot;#SvgjsMask1142&quot;)" fill="none"><path d="M-55.1 386.12L-55.1 386.12" stroke="#132e65" stroke-width="1.5"></path><path d="M-55.1 386.12L76.12 402.68" stroke="#132e65" stroke-width="1.5"></path><path d="M-55.1 386.12L-65.25 555.46" stroke="#132e65" stroke-width="1.5"></path><path d="M-55.1 386.12L79.2 495.87" stroke="#132e65" stroke-width="1.5"></path><path d="M-55.1 386.12L-41.42 662.6" stroke="#132e65" stroke-width="1.5"></path><path d="M-55.1 386.12L226.95 402.28" stroke="#132e65" stroke-width="1.5"></path><path d="M-55.1 386.12L44.81 660.6" stroke="#132e65" stroke-width="1.5"></path><path d="M-65.25 555.46L-65.25 555.46" stroke="#132e65" stroke-width="1.5"></path><path d="M-65.25 555.46L-41.42 662.6" stroke="#132e65" stroke-width="1.5"></path><path d="M-65.25 555.46L44.81 660.6" stroke="#132e65" stroke-width="1.5"></path><path d="M-65.25 555.46L79.2 495.87" stroke="#132e65" stroke-width="1.5"></path><path d="M-65.25 555.46L76.12 402.68" stroke="#132e65" stroke-width="1.5"></path><path d="M-41.42 662.6L-41.42 662.6" stroke="#132e65" stroke-width="1.5"></path><path d="M-41.42 662.6L44.81 660.6" stroke="#132e65" stroke-width="1.5"></path><path d="M76.12 402.68L76.12 402.68" stroke="#132e65" stroke-width="1.5"></path><path d="M76.12 402.68L79.2 495.87" stroke="#132e65" stroke-width="1.5"></path><path d="M76.12 402.68L226.95 402.28" stroke="#132e65" stroke-width="1.5"></path><path d="M76.12 402.68L209.99 535.63" stroke="#132e65" stroke-width="1.5"></path><path d="M79.2 495.87L79.2 495.87" stroke="#132e65" stroke-width="1.5"></path><path d="M79.2 495.87L209.99 535.63" stroke="#132e65" stroke-width="1.5"></path><path d="M44.81 660.6L44.81 660.6" stroke="#132e65" stroke-width="1.5"></path><path d="M44.81 660.6L79.2 495.87" stroke="#132e65" stroke-width="1.5"></path><path d="M44.81 660.6L209.99 535.63" stroke="#132e65" stroke-width="1.5"></path><path d="M44.81 660.6L76.12 402.68" stroke="#132e65" stroke-width="1.5"></path><path d="M226.95 402.28L226.95 402.28" stroke="#132e65" stroke-width="1.5"></path><path d="M226.95 402.28L209.99 535.63" stroke="#132e65" stroke-width="1.5"></path><path d="M226.95 402.28L392.09 363.4" stroke="#132e65" stroke-width="1.5"></path><path d="M209.99 535.63L209.99 535.63" stroke="#132e65" stroke-width="1.5"></path><path d="M209.99 535.63L383.72 548.21" stroke="#132e65" stroke-width="1.5"></path><path d="M392.09 363.4L392.09 363.4" stroke="#132e65" stroke-width="1.5"></path><path d="M392.09 363.4L540.53 351.87" stroke="#132e65" stroke-width="1.5"></path><path d="M392.09 363.4L383.72 548.21" stroke="#132e65" stroke-width="1.5"></path><path d="M392.09 363.4L510.32 542.88" stroke="#132e65" stroke-width="1.5"></path><path d="M392.09 363.4L209.99 535.63" stroke="#132e65" stroke-width="1.5"></path><path d="M383.72 548.21L383.72 548.21" stroke="#132e65" stroke-width="1.5"></path><path d="M383.72 548.21L510.32 542.88" stroke="#132e65" stroke-width="1.5"></path><path d="M383.72 548.21L407.07 675.37" stroke="#132e65" stroke-width="1.5"></path><path d="M383.72 548.21L523.77 672.21" stroke="#132e65" stroke-width="1.5"></path><path d="M407.07 675.37L407.07 675.37" stroke="#132e65" stroke-width="1.5"></path><path d="M407.07 675.37L523.77 672.21" stroke="#132e65" stroke-width="1.5"></path><path d="M407.07 675.37L510.32 542.88" stroke="#132e65" stroke-width="1.5"></path><path d="M407.07 675.37L209.99 535.63" stroke="#132e65" stroke-width="1.5"></path><path d="M407.07 675.37L650.05 638.84" stroke="#132e65" stroke-width="1.5"></path><path d="M540.53 351.87L540.53 351.87" stroke="#132e65" stroke-width="1.5"></path><path d="M540.53 351.87L510.32 542.88" stroke="#132e65" stroke-width="1.5"></path><path d="M540.53 351.87L709.81 201.05" stroke="#132e65" stroke-width="1.5"></path><path d="M510.32 542.88L510.32 542.88" stroke="#132e65" stroke-width="1.5"></path><path d="M510.32 542.88L523.77 672.21" stroke="#132e65" stroke-width="1.5"></path><path d="M510.32 542.88L650.05 638.84" stroke="#132e65" stroke-width="1.5"></path><path d="M510.32 542.88L710.21 506.3" stroke="#132e65" stroke-width="1.5"></path><path d="M523.77 672.21L523.77 672.21" stroke="#132e65" stroke-width="1.5"></path><path d="M523.77 672.21L650.05 638.84" stroke="#132e65" stroke-width="1.5"></path><path d="M523.77 672.21L710.21 506.3" stroke="#132e65" stroke-width="1.5"></path><path d="M523.77 672.21L802.89 548.47" stroke="#132e65" stroke-width="1.5"></path><path d="M709.81 201.05L709.81 201.05" stroke="#132e65" stroke-width="1.5"></path><path d="M709.81 201.05L859.9 227.88" stroke="#132e65" stroke-width="1.5"></path><path d="M709.81 201.05L850.97 110.66" stroke="#132e65" stroke-width="1.5"></path><path d="M710.21 506.3L710.21 506.3" stroke="#132e65" stroke-width="1.5"></path><path d="M710.21 506.3L802.89 548.47" stroke="#132e65" stroke-width="1.5"></path><path d="M710.21 506.3L650.05 638.84" stroke="#132e65" stroke-width="1.5"></path><path d="M710.21 506.3L801.85 385.28" stroke="#132e65" stroke-width="1.5"></path><path d="M710.21 506.3L856.23 674.48" stroke="#132e65" stroke-width="1.5"></path><path d="M710.21 506.3L540.53 351.87" stroke="#132e65" stroke-width="1.5"></path><path d="M650.05 638.84L650.05 638.84" stroke="#132e65" stroke-width="1.5"></path><path d="M850.97 110.66L850.97 110.66" stroke="#132e65" stroke-width="1.5"></path><path d="M850.97 110.66L950.41 69.13" stroke="#132e65" stroke-width="1.5"></path><path d="M850.97 110.66L859.9 227.88" stroke="#132e65" stroke-width="1.5"></path><path d="M850.97 110.66L993.12 225.54" stroke="#132e65" stroke-width="1.5"></path><path d="M850.97 110.66L957.72 -77.76" stroke="#132e65" stroke-width="1.5"></path><path d="M850.97 110.66L1100.04 191.49" stroke="#132e65" stroke-width="1.5"></path><path d="M859.9 227.88L859.9 227.88" stroke="#132e65" stroke-width="1.5"></path><path d="M859.9 227.88L993.12 225.54" stroke="#132e65" stroke-width="1.5"></path><path d="M859.9 227.88L801.85 385.28" stroke="#132e65" stroke-width="1.5"></path><path d="M801.85 385.28L801.85 385.28" stroke="#132e65" stroke-width="1.5"></path><path d="M801.85 385.28L802.89 548.47" stroke="#132e65" stroke-width="1.5"></path><path d="M801.85 385.28L996.7 374.46" stroke="#132e65" stroke-width="1.5"></path><path d="M801.85 385.28L709.81 201.05" stroke="#132e65" stroke-width="1.5"></path><path d="M802.89 548.47L802.89 548.47" stroke="#132e65" stroke-width="1.5"></path><path d="M802.89 548.47L856.23 674.48" stroke="#132e65" stroke-width="1.5"></path><path d="M856.23 674.48L856.23 674.48" stroke="#132e65" stroke-width="1.5"></path><path d="M856.23 674.48L940.95 688.96" stroke="#132e65" stroke-width="1.5"></path><path d="M856.23 674.48L979.26 542.05" stroke="#132e65" stroke-width="1.5"></path><path d="M856.23 674.48L650.05 638.84" stroke="#132e65" stroke-width="1.5"></path><path d="M856.23 674.48L1088.1 556.66" stroke="#132e65" stroke-width="1.5"></path><path d="M957.72 -77.76L957.72 -77.76" stroke="#132e65" stroke-width="1.5"></path><path d="M957.72 -77.76L950.41 69.13" stroke="#132e65" stroke-width="1.5"></path><path d="M957.72 -77.76L1149.69 54.57" stroke="#132e65" stroke-width="1.5"></path><path d="M957.72 -77.76L1257.99 -83.9" stroke="#132e65" stroke-width="1.5"></path><path d="M957.72 -77.76L1100.04 191.49" stroke="#132e65" stroke-width="1.5"></path><path d="M957.72 -77.76L993.12 225.54" stroke="#132e65" stroke-width="1.5"></path><path d="M950.41 69.13L950.41 69.13" stroke="#132e65" stroke-width="1.5"></path><path d="M993.12 225.54L993.12 225.54" stroke="#132e65" stroke-width="1.5"></path><path d="M993.12 225.54L1100.04 191.49" stroke="#132e65" stroke-width="1.5"></path><path d="M993.12 225.54L996.7 374.46" stroke="#132e65" stroke-width="1.5"></path><path d="M993.12 225.54L950.41 69.13" stroke="#132e65" stroke-width="1.5"></path><path d="M996.7 374.46L996.7 374.46" stroke="#132e65" stroke-width="1.5"></path><path d="M996.7 374.46L1159.86 392.48" stroke="#132e65" stroke-width="1.5"></path><path d="M996.7 374.46L979.26 542.05" stroke="#132e65" stroke-width="1.5"></path><path d="M996.7 374.46L859.9 227.88" stroke="#132e65" stroke-width="1.5"></path><path d="M979.26 542.05L979.26 542.05" stroke="#132e65" stroke-width="1.5"></path><path d="M979.26 542.05L1088.1 556.66" stroke="#132e65" stroke-width="1.5"></path><path d="M979.26 542.05L940.95 688.96" stroke="#132e65" stroke-width="1.5"></path><path d="M979.26 542.05L802.89 548.47" stroke="#132e65" stroke-width="1.5"></path><path d="M940.95 688.96L940.95 688.96" stroke="#132e65" stroke-width="1.5"></path><path d="M1149.69 54.57L1149.69 54.57" stroke="#132e65" stroke-width="1.5"></path><path d="M1149.69 54.57L1100.04 191.49" stroke="#132e65" stroke-width="1.5"></path><path d="M1149.69 54.57L1310.98 80.61" stroke="#132e65" stroke-width="1.5"></path><path d="M1149.69 54.57L1257.99 -83.9" stroke="#132e65" stroke-width="1.5"></path><path d="M1149.69 54.57L950.41 69.13" stroke="#132e65" stroke-width="1.5"></path><path d="M1149.69 54.57L1263.74 240.68" stroke="#132e65" stroke-width="1.5"></path><path d="M1149.69 54.57L993.12 225.54" stroke="#132e65" stroke-width="1.5"></path><path d="M1100.04 191.49L1100.04 191.49" stroke="#132e65" stroke-width="1.5"></path><path d="M1100.04 191.49L1263.74 240.68" stroke="#132e65" stroke-width="1.5"></path><path d="M1100.04 191.49L950.41 69.13" stroke="#132e65" stroke-width="1.5"></path><path d="M1159.86 392.48L1159.86 392.48" stroke="#132e65" stroke-width="1.5"></path><path d="M1159.86 392.48L1247.25 337.89" stroke="#132e65" stroke-width="1.5"></path><path d="M1159.86 392.48L1088.1 556.66" stroke="#132e65" stroke-width="1.5"></path><path d="M1088.1 556.66L1088.1 556.66" stroke="#132e65" stroke-width="1.5"></path><path d="M1088.1 556.66L1154.09 709.05" stroke="#132e65" stroke-width="1.5"></path><path d="M1088.1 556.66L1250 655.72" stroke="#132e65" stroke-width="1.5"></path><path d="M1154.09 709.05L1154.09 709.05" stroke="#132e65" stroke-width="1.5"></path><path d="M1154.09 709.05L1250 655.72" stroke="#132e65" stroke-width="1.5"></path><path d="M1154.09 709.05L940.95 688.96" stroke="#132e65" stroke-width="1.5"></path><path d="M1154.09 709.05L1289.23 529.59" stroke="#132e65" stroke-width="1.5"></path><path d="M1154.09 709.05L979.26 542.05" stroke="#132e65" stroke-width="1.5"></path><path d="M1154.09 709.05L856.23 674.48" stroke="#132e65" stroke-width="1.5"></path><path d="M1257.99 -83.9L1257.99 -83.9" stroke="#132e65" stroke-width="1.5"></path><path d="M1257.99 -83.9L1428.32 -62.03" stroke="#132e65" stroke-width="1.5"></path><path d="M1257.99 -83.9L1310.98 80.61" stroke="#132e65" stroke-width="1.5"></path><path d="M1257.99 -83.9L1414.59 76.36" stroke="#132e65" stroke-width="1.5"></path><path d="M1310.98 80.61L1310.98 80.61" stroke="#132e65" stroke-width="1.5"></path><path d="M1310.98 80.61L1414.59 76.36" stroke="#132e65" stroke-width="1.5"></path><path d="M1310.98 80.61L1263.74 240.68" stroke="#132e65" stroke-width="1.5"></path><path d="M1310.98 80.61L1428.32 -62.03" stroke="#132e65" stroke-width="1.5"></path><path d="M1263.74 240.68L1263.74 240.68" stroke="#132e65" stroke-width="1.5"></path><path d="M1263.74 240.68L1247.25 337.89" stroke="#132e65" stroke-width="1.5"></path><path d="M1263.74 240.68L1409.69 255.9" stroke="#132e65" stroke-width="1.5"></path><path d="M1263.74 240.68L1159.86 392.48" stroke="#132e65" stroke-width="1.5"></path><path d="M1247.25 337.89L1247.25 337.89" stroke="#132e65" stroke-width="1.5"></path><path d="M1289.23 529.59L1289.23 529.59" stroke="#132e65" stroke-width="1.5"></path><path d="M1289.23 529.59L1416.12 539.64" stroke="#132e65" stroke-width="1.5"></path><path d="M1289.23 529.59L1250 655.72" stroke="#132e65" stroke-width="1.5"></path><path d="M1289.23 529.59L1392.67 412.47" stroke="#132e65" stroke-width="1.5"></path><path d="M1289.23 529.59L1159.86 392.48" stroke="#132e65" stroke-width="1.5"></path><path d="M1289.23 529.59L1247.25 337.89" stroke="#132e65" stroke-width="1.5"></path><path d="M1289.23 529.59L1088.1 556.66" stroke="#132e65" stroke-width="1.5"></path><path d="M1250 655.72L1250 655.72" stroke="#132e65" stroke-width="1.5"></path><path d="M1250 655.72L1416.12 539.64" stroke="#132e65" stroke-width="1.5"></path><path d="M1250 655.72L1159.86 392.48" stroke="#132e65" stroke-width="1.5"></path><path d="M1250 655.72L1392.67 412.47" stroke="#132e65" stroke-width="1.5"></path><path d="M1428.32 -62.03L1428.32 -62.03" stroke="#132e65" stroke-width="1.5"></path><path d="M1428.32 -62.03L1558.25 -71.13" stroke="#132e65" stroke-width="1.5"></path><path d="M1428.32 -62.03L1414.59 76.36" stroke="#132e65" stroke-width="1.5"></path><path d="M1428.32 -62.03L1583.83 104.8" stroke="#132e65" stroke-width="1.5"></path><path d="M1428.32 -62.03L1555.59 190.17" stroke="#132e65" stroke-width="1.5"></path><path d="M1414.59 76.36L1414.59 76.36" stroke="#132e65" stroke-width="1.5"></path><path d="M1414.59 76.36L1583.83 104.8" stroke="#132e65" stroke-width="1.5"></path><path d="M1409.69 255.9L1409.69 255.9" stroke="#132e65" stroke-width="1.5"></path><path d="M1409.69 255.9L1392.67 412.47" stroke="#132e65" stroke-width="1.5"></path><path d="M1409.69 255.9L1555.59 190.17" stroke="#132e65" stroke-width="1.5"></path><path d="M1409.69 255.9L1414.59 76.36" stroke="#132e65" stroke-width="1.5"></path><path d="M1409.69 255.9L1247.25 337.89" stroke="#132e65" stroke-width="1.5"></path><path d="M1409.69 255.9L1310.98 80.61" stroke="#132e65" stroke-width="1.5"></path><path d="M1392.67 412.47L1392.67 412.47" stroke="#132e65" stroke-width="1.5"></path><path d="M1392.67 412.47L1416.12 539.64" stroke="#132e65" stroke-width="1.5"></path><path d="M1416.12 539.64L1416.12 539.64" stroke="#132e65" stroke-width="1.5"></path><path d="M1416.12 539.64L1539.94 542.99" stroke="#132e65" stroke-width="1.5"></path><path d="M1558.25 -71.13L1558.25 -71.13" stroke="#132e65" stroke-width="1.5"></path><path d="M1558.25 -71.13L1583.83 104.8" stroke="#132e65" stroke-width="1.5"></path><path d="M1558.25 -71.13L1414.59 76.36" stroke="#132e65" stroke-width="1.5"></path><path d="M1558.25 -71.13L1555.59 190.17" stroke="#132e65" stroke-width="1.5"></path><path d="M1558.25 -71.13L1310.98 80.61" stroke="#132e65" stroke-width="1.5"></path><path d="M1583.83 104.8L1583.83 104.8" stroke="#132e65" stroke-width="1.5"></path><path d="M1583.83 104.8L1555.59 190.17" stroke="#132e65" stroke-width="1.5"></path><path d="M1555.59 190.17L1555.59 190.17" stroke="#132e65" stroke-width="1.5"></path><path d="M1539.94 542.99L1539.94 542.99" stroke="#132e65" stroke-width="1.5"></path><path d="M1539.94 542.99L1584.38 706.74" stroke="#132e65" stroke-width="1.5"></path><path d="M1539.94 542.99L1392.67 412.47" stroke="#132e65" stroke-width="1.5"></path><path d="M1539.94 542.99L1289.23 529.59" stroke="#132e65" stroke-width="1.5"></path><path d="M1539.94 542.99L1250 655.72" stroke="#132e65" stroke-width="1.5"></path><path d="M1539.94 542.99L1409.69 255.9" stroke="#132e65" stroke-width="1.5"></path><path d="M1584.38 706.74L1584.38 706.74" stroke="#132e65" stroke-width="1.5"></path><path d="M1584.38 706.74L1416.12 539.64" stroke="#132e65" stroke-width="1.5"></path><path d="M1584.38 706.74L1250 655.72" stroke="#132e65" stroke-width="1.5"></path><path d="M1584.38 706.74L1289.23 529.59" stroke="#132e65" stroke-width="1.5"></path><circle r="5" cx="-55.1" cy="386.12" fill="#132e65"></circle><circle r="5" cx="-65.25" cy="555.46" fill="#132e65"></circle><circle r="5" cx="-41.42" cy="662.6" fill="#132e65"></circle><circle r="5" cx="76.12" cy="402.68" fill="#132e65"></circle><circle r="5" cx="79.2" cy="495.87" fill="#132e65"></circle><circle r="5" cx="44.81" cy="660.6" fill="#132e65"></circle><circle r="5" cx="226.95" cy="402.28" fill="#132e65"></circle><circle r="5" cx="209.99" cy="535.63" fill="#132e65"></circle><circle r="5" cx="392.09" cy="363.4" fill="#132e65"></circle><circle r="5" cx="383.72" cy="548.21" fill="#132e65"></circle><circle r="5" cx="407.07" cy="675.37" fill="#132e65"></circle><circle r="5" cx="540.53" cy="351.87" fill="#132e65"></circle><circle r="5" cx="510.32" cy="542.88" fill="#132e65"></circle><circle r="5" cx="523.77" cy="672.21" fill="#132e65"></circle><circle r="5" cx="709.81" cy="201.05" fill="#132e65"></circle><circle r="5" cx="710.21" cy="506.3" fill="#132e65"></circle><circle r="5" cx="650.05" cy="638.84" fill="#132e65"></circle><circle r="5" cx="850.97" cy="110.66" fill="#132e65"></circle><circle r="5" cx="859.9" cy="227.88" fill="#132e65"></circle><circle r="5" cx="801.85" cy="385.28" fill="#132e65"></circle><circle r="5" cx="802.89" cy="548.47" fill="#132e65"></circle><circle r="5" cx="856.23" cy="674.48" fill="#132e65"></circle><circle r="5" cx="957.72" cy="-77.76" fill="#132e65"></circle><circle r="5" cx="950.41" cy="69.13" fill="#132e65"></circle><circle r="5" cx="993.12" cy="225.54" fill="#132e65"></circle><circle r="5" cx="996.7" cy="374.46" fill="#132e65"></circle><circle r="5" cx="979.26" cy="542.05" fill="#132e65"></circle><circle r="5" cx="940.95" cy="688.96" fill="#132e65"></circle><circle r="5" cx="1149.69" cy="54.57" fill="#132e65"></circle><circle r="5" cx="1100.04" cy="191.49" fill="#132e65"></circle><circle r="5" cx="1159.86" cy="392.48" fill="#132e65"></circle><circle r="5" cx="1088.1" cy="556.66" fill="#132e65"></circle><circle r="5" cx="1154.09" cy="709.05" fill="#132e65"></circle><circle r="5" cx="1257.99" cy="-83.9" fill="#132e65"></circle><circle r="5" cx="1310.98" cy="80.61" fill="#132e65"></circle><circle r="5" cx="1263.74" cy="240.68" fill="#132e65"></circle><circle r="5" cx="1247.25" cy="337.89" fill="#132e65"></circle><circle r="5" cx="1289.23" cy="529.59" fill="#132e65"></circle><circle r="5" cx="1250" cy="655.72" fill="#132e65"></circle><circle r="5" cx="1428.32" cy="-62.03" fill="#132e65"></circle><circle r="5" cx="1414.59" cy="76.36" fill="#132e65"></circle><circle r="5" cx="1409.69" cy="255.9" fill="#132e65"></circle><circle r="5" cx="1392.67" cy="412.47" fill="#132e65"></circle><circle r="5" cx="1416.12" cy="539.64" fill="#132e65"></circle><circle r="5" cx="1558.25" cy="-71.13" fill="#132e65"></circle><circle r="5" cx="1583.83" cy="104.8" fill="#132e65"></circle><circle r="5" cx="1555.59" cy="190.17" fill="#132e65"></circle><circle r="5" cx="1539.94" cy="542.99" fill="#132e65"></circle><circle r="5" cx="1584.38" cy="706.74" fill="#132e65"></circle><path d="M-89.37 546.36L-89.37 546.36" stroke="hsl(228.5, 77.2%, 51.5%)" stroke-width="1.5"></path><path d="M-89.37 546.36L93.95 541.23" stroke="hsl(228.5, 77.2%, 51.5%)" stroke-width="1.5"></path><path d="M-89.37 546.36L61.55 663.31" stroke="hsl(228.5, 77.2%, 51.5%)" stroke-width="1.5"></path><path d="M-89.37 546.36L239.84 538.42" stroke="hsl(228.5, 77.2%, 51.5%)" stroke-width="1.5"></path><path d="M-89.37 546.36L206.51 712.46" stroke="hsl(228.5, 77.2%, 51.5%)" stroke-width="1.5"></path><path d="M-89.37 546.36L368.1 535.5" stroke="hsl(228.5, 77.2%, 51.5%)" stroke-width="1.5"></path><path d="M492.5 501.72L492.5 501.72" stroke="hsl(228.5, 77.2%, 51.5%)" stroke-width="1.5"></path><path d="M492.5 501.72L368.1 535.5" stroke="hsl(228.5, 77.2%, 51.5%)" stroke-width="1.5"></path><path d="M492.5 501.72L490.14 648.28" stroke="hsl(228.5, 77.2%, 51.5%)" stroke-width="1.5"></path><path d="M492.5 501.72L659.09 401.72" stroke="hsl(228.5, 77.2%, 51.5%)" stroke-width="1.5"></path><path d="M492.5 501.72L712.16 551.23" stroke="hsl(228.5, 77.2%, 51.5%)" stroke-width="1.5"></path><path d="M492.5 501.72L381.09 710.05" stroke="hsl(228.5, 77.2%, 51.5%)" stroke-width="1.5"></path><path d="M492.5 501.72L239.84 538.42" stroke="hsl(228.5, 77.2%, 51.5%)" stroke-width="1.5"></path><path d="M787.73 347.66L787.73 347.66" stroke="hsl(228.5, 77.2%, 51.5%)" stroke-width="1.5"></path><path d="M787.73 347.66L659.09 401.72" stroke="hsl(228.5, 77.2%, 51.5%)" stroke-width="1.5"></path><path d="M787.73 347.66L949.12 389.22" stroke="hsl(228.5, 77.2%, 51.5%)" stroke-width="1.5"></path><path d="M787.73 347.66L796.65 556.9" stroke="hsl(228.5, 77.2%, 51.5%)" stroke-width="1.5"></path><path d="M787.73 347.66L712.16 551.23" stroke="hsl(228.5, 77.2%, 51.5%)" stroke-width="1.5"></path><path d="M796.65 556.9L796.65 556.9" stroke="hsl(228.5, 77.2%, 51.5%)" stroke-width="1.5"></path><path d="M796.65 556.9L712.16 551.23" stroke="hsl(228.5, 77.2%, 51.5%)" stroke-width="1.5"></path><path d="M796.65 556.9L831.49 665.8" stroke="hsl(228.5, 77.2%, 51.5%)" stroke-width="1.5"></path><path d="M796.65 556.9L939.25 504.07" stroke="hsl(228.5, 77.2%, 51.5%)" stroke-width="1.5"></path><path d="M949.12 389.22L949.12 389.22" stroke="hsl(228.5, 77.2%, 51.5%)" stroke-width="1.5"></path><path d="M949.12 389.22L939.25 504.07" stroke="hsl(228.5, 77.2%, 51.5%)" stroke-width="1.5"></path><path d="M949.12 389.22L1104.98 367.95" stroke="hsl(228.5, 77.2%, 51.5%)" stroke-width="1.5"></path><path d="M949.12 389.22L1094.08 536.39" stroke="hsl(228.5, 77.2%, 51.5%)" stroke-width="1.5"></path><path d="M949.12 389.22L796.65 556.9" stroke="hsl(228.5, 77.2%, 51.5%)" stroke-width="1.5"></path><path d="M949.12 389.22L1125.43 198.98" stroke="hsl(228.5, 77.2%, 51.5%)" stroke-width="1.5"></path><path d="M1293.84 213.18L1293.84 213.18" stroke="hsl(228.5, 77.2%, 51.5%)" stroke-width="1.5"></path><path d="M1293.84 213.18L1305.5 340.77" stroke="hsl(228.5, 77.2%, 51.5%)" stroke-width="1.5"></path><path d="M1293.84 213.18L1437.73 209.54" stroke="hsl(228.5, 77.2%, 51.5%)" stroke-width="1.5"></path><path d="M1305.5 340.77L1305.5 340.77" stroke="hsl(228.5, 77.2%, 51.5%)" stroke-width="1.5"></path><path d="M1305.5 340.77L1407.43 343.28" stroke="hsl(228.5, 77.2%, 51.5%)" stroke-width="1.5"></path><path d="M1252.86 647.09L1252.86 647.09" stroke="hsl(228.5, 77.2%, 51.5%)" stroke-width="1.5"></path><path d="M1252.86 647.09L1240.23 497.24" stroke="hsl(228.5, 77.2%, 51.5%)" stroke-width="1.5"></path><path d="M1252.86 647.09L1097.16 692.53" stroke="hsl(228.5, 77.2%, 51.5%)" stroke-width="1.5"></path><path d="M1407.43 343.28L1407.43 343.28" stroke="hsl(228.5, 77.2%, 51.5%)" stroke-width="1.5"></path><path d="M1407.43 343.28L1539.39 364.54" stroke="hsl(228.5, 77.2%, 51.5%)" stroke-width="1.5"></path><path d="M1429.36 491.77L1429.36 491.77" stroke="hsl(228.5, 77.2%, 51.5%)" stroke-width="1.5"></path><path d="M1429.36 491.77L1407.43 343.28" stroke="hsl(228.5, 77.2%, 51.5%)" stroke-width="1.5"></path><path d="M1429.36 491.77L1539.39 364.54" stroke="hsl(228.5, 77.2%, 51.5%)" stroke-width="1.5"></path><path d="M1429.36 491.77L1415.73 666.63" stroke="hsl(228.5, 77.2%, 51.5%)" stroke-width="1.5"></path><path d="M1429.36 491.77L1240.23 497.24" stroke="hsl(228.5, 77.2%, 51.5%)" stroke-width="1.5"></path><path d="M1429.36 491.77L1305.5 340.77" stroke="hsl(228.5, 77.2%, 51.5%)" stroke-width="1.5"></path><path d="M1592.76 653.31L1592.76 653.31" stroke="hsl(228.5, 77.2%, 51.5%)" stroke-width="1.5"></path><path d="M1592.76 653.31L1415.73 666.63" stroke="hsl(228.5, 77.2%, 51.5%)" stroke-width="1.5"></path><path d="M1592.76 653.31L1429.36 491.77" stroke="hsl(228.5, 77.2%, 51.5%)" stroke-width="1.5"></path><path d="M1592.76 653.31L1539.39 364.54" stroke="hsl(228.5, 77.2%, 51.5%)" stroke-width="1.5"></path><path d="M1592.76 653.31L1252.86 647.09" stroke="hsl(228.5, 77.2%, 51.5%)" stroke-width="1.5"></path><path d="M1592.76 653.31L1407.43 343.28" stroke="hsl(228.5, 77.2%, 51.5%)" stroke-width="1.5"></path><path d="M93.95 541.23L93.95 541.23" stroke="hsl(228.5, 77.2%, 51.5%)" stroke-width="1.5"></path><path d="M93.95 541.23L61.55 663.31" stroke="hsl(228.5, 77.2%, 51.5%)" stroke-width="1.5"></path><path d="M93.95 541.23L239.84 538.42" stroke="hsl(228.5, 77.2%, 51.5%)" stroke-width="1.5"></path><path d="M61.55 663.31L61.55 663.31" stroke="hsl(228.5, 77.2%, 51.5%)" stroke-width="1.5"></path><path d="M61.55 663.31L206.51 712.46" stroke="hsl(228.5, 77.2%, 51.5%)" stroke-width="1.5"></path><path d="M61.55 663.31L239.84 538.42" stroke="hsl(228.5, 77.2%, 51.5%)" stroke-width="1.5"></path><path d="M61.55 663.31L381.09 710.05" stroke="hsl(228.5, 77.2%, 51.5%)" stroke-width="1.5"></path><path d="M61.55 663.31L368.1 535.5" stroke="hsl(228.5, 77.2%, 51.5%)" stroke-width="1.5"></path><path d="M239.84 538.42L239.84 538.42" stroke="hsl(228.5, 77.2%, 51.5%)" stroke-width="1.5"></path><path d="M239.84 538.42L368.1 535.5" stroke="hsl(228.5, 77.2%, 51.5%)" stroke-width="1.5"></path><path d="M239.84 538.42L206.51 712.46" stroke="hsl(228.5, 77.2%, 51.5%)" stroke-width="1.5"></path><path d="M206.51 712.46L206.51 712.46" stroke="hsl(228.5, 77.2%, 51.5%)" stroke-width="1.5"></path><path d="M206.51 712.46L381.09 710.05" stroke="hsl(228.5, 77.2%, 51.5%)" stroke-width="1.5"></path><path d="M206.51 712.46L93.95 541.23" stroke="hsl(228.5, 77.2%, 51.5%)" stroke-width="1.5"></path><path d="M206.51 712.46L368.1 535.5" stroke="hsl(228.5, 77.2%, 51.5%)" stroke-width="1.5"></path><path d="M368.1 535.5L368.1 535.5" stroke="hsl(228.5, 77.2%, 51.5%)" stroke-width="1.5"></path><path d="M368.1 535.5L490.14 648.28" stroke="hsl(228.5, 77.2%, 51.5%)" stroke-width="1.5"></path><path d="M381.09 710.05L381.09 710.05" stroke="hsl(228.5, 77.2%, 51.5%)" stroke-width="1.5"></path><path d="M381.09 710.05L490.14 648.28" stroke="hsl(228.5, 77.2%, 51.5%)" stroke-width="1.5"></path><path d="M490.14 648.28L490.14 648.28" stroke="hsl(228.5, 77.2%, 51.5%)" stroke-width="1.5"></path><path d="M490.14 648.28L681.42 704.67" stroke="hsl(228.5, 77.2%, 51.5%)" stroke-width="1.5"></path><path d="M490.14 648.28L712.16 551.23" stroke="hsl(228.5, 77.2%, 51.5%)" stroke-width="1.5"></path><path d="M490.14 648.28L239.84 538.42" stroke="hsl(228.5, 77.2%, 51.5%)" stroke-width="1.5"></path><path d="M659.09 401.72L659.09 401.72" stroke="hsl(228.5, 77.2%, 51.5%)" stroke-width="1.5"></path><path d="M659.09 401.72L712.16 551.23" stroke="hsl(228.5, 77.2%, 51.5%)" stroke-width="1.5"></path><path d="M712.16 551.23L712.16 551.23" stroke="hsl(228.5, 77.2%, 51.5%)" stroke-width="1.5"></path><path d="M712.16 551.23L681.42 704.67" stroke="hsl(228.5, 77.2%, 51.5%)" stroke-width="1.5"></path><path d="M681.42 704.67L681.42 704.67" stroke="hsl(228.5, 77.2%, 51.5%)" stroke-width="1.5"></path><path d="M681.42 704.67L831.49 665.8" stroke="hsl(228.5, 77.2%, 51.5%)" stroke-width="1.5"></path><path d="M681.42 704.67L796.65 556.9" stroke="hsl(228.5, 77.2%, 51.5%)" stroke-width="1.5"></path><path d="M831.49 665.8L831.49 665.8" stroke="hsl(228.5, 77.2%, 51.5%)" stroke-width="1.5"></path><path d="M831.49 665.8L988.44 684.74" stroke="hsl(228.5, 77.2%, 51.5%)" stroke-width="1.5"></path><path d="M831.49 665.8L712.16 551.23" stroke="hsl(228.5, 77.2%, 51.5%)" stroke-width="1.5"></path><path d="M939.25 504.07L939.25 504.07" stroke="hsl(228.5, 77.2%, 51.5%)" stroke-width="1.5"></path><path d="M939.25 504.07L1094.08 536.39" stroke="hsl(228.5, 77.2%, 51.5%)" stroke-width="1.5"></path><path d="M939.25 504.07L988.44 684.74" stroke="hsl(228.5, 77.2%, 51.5%)" stroke-width="1.5"></path><path d="M988.44 684.74L988.44 684.74" stroke="hsl(228.5, 77.2%, 51.5%)" stroke-width="1.5"></path><path d="M988.44 684.74L1097.16 692.53" stroke="hsl(228.5, 77.2%, 51.5%)" stroke-width="1.5"></path><path d="M1125.43 198.98L1125.43 198.98" stroke="hsl(228.5, 77.2%, 51.5%)" stroke-width="1.5"></path><path d="M1125.43 198.98L1293.84 213.18" stroke="hsl(228.5, 77.2%, 51.5%)" stroke-width="1.5"></path><path d="M1125.43 198.98L1104.98 367.95" stroke="hsl(228.5, 77.2%, 51.5%)" stroke-width="1.5"></path><path d="M1125.43 198.98L1305.5 340.77" stroke="hsl(228.5, 77.2%, 51.5%)" stroke-width="1.5"></path><path d="M1125.43 198.98L1301.36 50.19" stroke="hsl(228.5, 77.2%, 51.5%)" stroke-width="1.5"></path><path d="M1104.98 367.95L1104.98 367.95" stroke="hsl(228.5, 77.2%, 51.5%)" stroke-width="1.5"></path><path d="M1104.98 367.95L1094.08 536.39" stroke="hsl(228.5, 77.2%, 51.5%)" stroke-width="1.5"></path><path d="M1104.98 367.95L1240.23 497.24" stroke="hsl(228.5, 77.2%, 51.5%)" stroke-width="1.5"></path><path d="M1094.08 536.39L1094.08 536.39" stroke="hsl(228.5, 77.2%, 51.5%)" stroke-width="1.5"></path><path d="M1094.08 536.39L1240.23 497.24" stroke="hsl(228.5, 77.2%, 51.5%)" stroke-width="1.5"></path><path d="M1094.08 536.39L1097.16 692.53" stroke="hsl(228.5, 77.2%, 51.5%)" stroke-width="1.5"></path><path d="M1097.16 692.53L1097.16 692.53" stroke="hsl(228.5, 77.2%, 51.5%)" stroke-width="1.5"></path><path d="M1097.16 692.53L1240.23 497.24" stroke="hsl(228.5, 77.2%, 51.5%)" stroke-width="1.5"></path><path d="M1297.15 -78.88L1297.15 -78.88" stroke="hsl(228.5, 77.2%, 51.5%)" stroke-width="1.5"></path><path d="M1297.15 -78.88L1404.16 -97.31" stroke="hsl(228.5, 77.2%, 51.5%)" stroke-width="1.5"></path><path d="M1297.15 -78.88L1301.36 50.19" stroke="hsl(228.5, 77.2%, 51.5%)" stroke-width="1.5"></path><path d="M1297.15 -78.88L1457.6 92.4" stroke="hsl(228.5, 77.2%, 51.5%)" stroke-width="1.5"></path><path d="M1297.15 -78.88L1539.71 -103.73" stroke="hsl(228.5, 77.2%, 51.5%)" stroke-width="1.5"></path><path d="M1297.15 -78.88L1293.84 213.18" stroke="hsl(228.5, 77.2%, 51.5%)" stroke-width="1.5"></path><path d="M1297.15 -78.88L1437.73 209.54" stroke="hsl(228.5, 77.2%, 51.5%)" stroke-width="1.5"></path><path d="M1301.36 50.19L1301.36 50.19" stroke="hsl(228.5, 77.2%, 51.5%)" stroke-width="1.5"></path><path d="M1301.36 50.19L1457.6 92.4" stroke="hsl(228.5, 77.2%, 51.5%)" stroke-width="1.5"></path><path d="M1301.36 50.19L1293.84 213.18" stroke="hsl(228.5, 77.2%, 51.5%)" stroke-width="1.5"></path><path d="M1301.36 50.19L1404.16 -97.31" stroke="hsl(228.5, 77.2%, 51.5%)" stroke-width="1.5"></path><path d="M1240.23 497.24L1240.23 497.24" stroke="hsl(228.5, 77.2%, 51.5%)" stroke-width="1.5"></path><path d="M1240.23 497.24L1305.5 340.77" stroke="hsl(228.5, 77.2%, 51.5%)" stroke-width="1.5"></path><path d="M1404.16 -97.31L1404.16 -97.31" stroke="hsl(228.5, 77.2%, 51.5%)" stroke-width="1.5"></path><path d="M1404.16 -97.31L1539.71 -103.73" stroke="hsl(228.5, 77.2%, 51.5%)" stroke-width="1.5"></path><path d="M1404.16 -97.31L1457.6 92.4" stroke="hsl(228.5, 77.2%, 51.5%)" stroke-width="1.5"></path><path d="M1457.6 92.4L1457.6 92.4" stroke="hsl(228.5, 77.2%, 51.5%)" stroke-width="1.5"></path><path d="M1457.6 92.4L1437.73 209.54" stroke="hsl(228.5, 77.2%, 51.5%)" stroke-width="1.5"></path><path d="M1457.6 92.4L1592.3 107.47" stroke="hsl(228.5, 77.2%, 51.5%)" stroke-width="1.5"></path><path d="M1457.6 92.4L1594.88 224.98" stroke="hsl(228.5, 77.2%, 51.5%)" stroke-width="1.5"></path><path d="M1457.6 92.4L1293.84 213.18" stroke="hsl(228.5, 77.2%, 51.5%)" stroke-width="1.5"></path><path d="M1437.73 209.54L1437.73 209.54" stroke="hsl(228.5, 77.2%, 51.5%)" stroke-width="1.5"></path><path d="M1437.73 209.54L1407.43 343.28" stroke="hsl(228.5, 77.2%, 51.5%)" stroke-width="1.5"></path><path d="M1415.73 666.63L1415.73 666.63" stroke="hsl(228.5, 77.2%, 51.5%)" stroke-width="1.5"></path><path d="M1415.73 666.63L1252.86 647.09" stroke="hsl(228.5, 77.2%, 51.5%)" stroke-width="1.5"></path><path d="M1415.73 666.63L1240.23 497.24" stroke="hsl(228.5, 77.2%, 51.5%)" stroke-width="1.5"></path><path d="M1415.73 666.63L1097.16 692.53" stroke="hsl(228.5, 77.2%, 51.5%)" stroke-width="1.5"></path><path d="M1539.71 -103.73L1539.71 -103.73" stroke="hsl(228.5, 77.2%, 51.5%)" stroke-width="1.5"></path><path d="M1539.71 -103.73L1457.6 92.4" stroke="hsl(228.5, 77.2%, 51.5%)" stroke-width="1.5"></path><path d="M1539.71 -103.73L1592.3 107.47" stroke="hsl(228.5, 77.2%, 51.5%)" stroke-width="1.5"></path><path d="M1592.3 107.47L1592.3 107.47" stroke="hsl(228.5, 77.2%, 51.5%)" stroke-width="1.5"></path><path d="M1592.3 107.47L1594.88 224.98" stroke="hsl(228.5, 77.2%, 51.5%)" stroke-width="1.5"></path><path d="M1592.3 107.47L1437.73 209.54" stroke="hsl(228.5, 77.2%, 51.5%)" stroke-width="1.5"></path><path d="M1592.3 107.47L1539.39 364.54" stroke="hsl(228.5, 77.2%, 51.5%)" stroke-width="1.5"></path><path d="M1592.3 107.47L1404.16 -97.31" stroke="hsl(228.5, 77.2%, 51.5%)" stroke-width="1.5"></path><path d="M1594.88 224.98L1594.88 224.98" stroke="hsl(228.5, 77.2%, 51.5%)" stroke-width="1.5"></path><path d="M1594.88 224.98L1539.39 364.54" stroke="hsl(228.5, 77.2%, 51.5%)" stroke-width="1.5"></path><path d="M1594.88 224.98L1437.73 209.54" stroke="hsl(228.5, 77.2%, 51.5%)" stroke-width="1.5"></path><path d="M1594.88 224.98L1407.43 343.28" stroke="hsl(228.5, 77.2%, 51.5%)" stroke-width="1.5"></path><path d="M1539.39 364.54L1539.39 364.54" stroke="hsl(228.5, 77.2%, 51.5%)" stroke-width="1.5"></path><circle r="25" cx="-89.37" cy="546.36" fill="url(#SvgjsRadialGradient1143)"></circle><circle r="25" cx="492.5" cy="501.72" fill="url(#SvgjsRadialGradient1143)"></circle><circle r="25" cx="787.73" cy="347.66" fill="url(#SvgjsRadialGradient1143)"></circle><circle r="25" cx="796.65" cy="556.9" fill="url(#SvgjsRadialGradient1143)"></circle><circle r="25" cx="949.12" cy="389.22" fill="url(#SvgjsRadialGradient1143)"></circle><circle r="25" cx="1293.84" cy="213.18" fill="url(#SvgjsRadialGradient1143)"></circle><circle r="25" cx="1305.5" cy="340.77" fill="url(#SvgjsRadialGradient1143)"></circle><circle r="25" cx="1252.86" cy="647.09" fill="url(#SvgjsRadialGradient1143)"></circle><circle r="25" cx="1407.43" cy="343.28" fill="url(#SvgjsRadialGradient1143)"></circle><circle r="25" cx="1429.36" cy="491.77" fill="url(#SvgjsRadialGradient1143)"></circle><circle r="25" cx="1592.76" cy="653.31" fill="url(#SvgjsRadialGradient1143)"></circle><circle r="5" cx="93.95" cy="541.23" fill="#8b9ad9"></circle><circle r="5" cx="61.55" cy="663.31" fill="#8b9ad9"></circle><circle r="5" cx="239.84" cy="538.42" fill="#8b9ad9"></circle><circle r="5" cx="206.51" cy="712.46" fill="#8b9ad9"></circle><circle r="5" cx="368.1" cy="535.5" fill="#8b9ad9"></circle><circle r="5" cx="381.09" cy="710.05" fill="#8b9ad9"></circle><circle r="5" cx="490.14" cy="648.28" fill="#8b9ad9"></circle><circle r="5" cx="659.09" cy="401.72" fill="#8b9ad9"></circle><circle r="5" cx="712.16" cy="551.23" fill="#8b9ad9"></circle><circle r="5" cx="681.42" cy="704.67" fill="#8b9ad9"></circle><circle r="5" cx="831.49" cy="665.8" fill="#8b9ad9"></circle><circle r="5" cx="939.25" cy="504.07" fill="#8b9ad9"></circle><circle r="5" cx="988.44" cy="684.74" fill="#8b9ad9"></circle><circle r="5" cx="1125.43" cy="198.98" fill="#8b9ad9"></circle><circle r="5" cx="1104.98" cy="367.95" fill="#8b9ad9"></circle><circle r="5" cx="1094.08" cy="536.39" fill="#8b9ad9"></circle><circle r="5" cx="1097.16" cy="692.53" fill="#8b9ad9"></circle><circle r="5" cx="1297.15" cy="-78.88" fill="#8b9ad9"></circle><circle r="5" cx="1301.36" cy="50.19" fill="#8b9ad9"></circle><circle r="5" cx="1240.23" cy="497.24" fill="#8b9ad9"></circle><circle r="5" cx="1404.16" cy="-97.31" fill="#8b9ad9"></circle><circle r="5" cx="1457.6" cy="92.4" fill="#8b9ad9"></circle><circle r="5" cx="1437.73" cy="209.54" fill="#8b9ad9"></circle><circle r="5" cx="1415.73" cy="666.63" fill="#8b9ad9"></circle><circle r="5" cx="1539.71" cy="-103.73" fill="#8b9ad9"></circle><circle r="5" cx="1592.3" cy="107.47" fill="#8b9ad9"></circle><circle r="5" cx="1594.88" cy="224.98" fill="#8b9ad9"></circle><circle r="5" cx="1539.39" cy="364.54" fill="#8b9ad9"></circle></g><defs><mask id="SvgjsMask1142"><rect width="1461" height="532" fill="#ffffff"></rect></mask><radialGradient id="SvgjsRadialGradient1143"><stop stop-color="#ffffff" offset="0.1"></stop><stop stop-color="#1735b3" offset="0.2"></stop><stop stop-color="rgba(23, 53, 179, 0)" offset="1"></stop></radialGradient></defs></svg>